<svg width="45" height="75" viewBox="0 0 45 75" fill="none" xmlns="http://www.w3.org/2000/svg">
<g clip-path="url(#clip0)">
<path d="M43.8992 0.36318C43.8992 14.8466 43.8992 29.3268 43.8958 43.8103H0V0.0336277C0.0944648 -0.0201766 0.195677 0.00672555 0.296889 0.00672555H43.5617C43.9397 0.00672555 43.8992 -0.0336277 43.8992 0.36318Z" fill="#F90000"/>
<path d="M0.344116 63.3916V44.3785L44.2398 44.3853L44.25 63.089L22.3476 75V74.9932L0.344116 63.3916Z" fill="#001E74"/>
<path d="M8.8629 35.8943C8.54235 37.0209 8.22862 38.1205 7.91482 39.2235C7.77652 39.7144 7.6281 40.2021 7.49652 40.693C7.46278 40.8242 7.40206 40.8679 7.27385 40.8679C6.8184 40.8646 6.35956 40.8612 5.90411 40.8712C5.76241 40.8746 5.69831 40.8275 5.65783 40.6829C5.27997 39.3244 4.89536 37.9692 4.51413 36.614C4.21387 35.5446 3.9271 34.4752 3.61672 33.4093C3.55599 33.2008 3.62009 33.1806 3.79552 33.1806C4.18013 33.1873 4.56474 33.1906 4.94597 33.1806C5.11803 33.1738 5.18213 33.2445 5.22262 33.3991C5.63758 35.0267 6.0593 36.6544 6.48102 38.2819C6.5215 38.44 6.56536 38.598 6.62947 38.83C6.81165 38.1945 6.97696 37.6329 7.13553 37.068C7.48303 35.8439 7.82715 34.6198 8.16787 33.3925C8.20837 33.2411 8.27587 33.1806 8.42767 33.184C8.72115 33.1906 9.0147 33.2008 9.30487 33.1772C9.5073 33.1604 9.5646 33.2512 9.61522 33.4193C10.0673 35.0301 10.5262 36.6409 10.9816 38.2483C11.0254 38.403 11.0727 38.5576 11.1739 38.7191C11.2211 38.551 11.2751 38.3862 11.319 38.218C11.734 36.6173 12.1556 35.0133 12.5605 33.4093C12.6043 33.2311 12.6752 33.1738 12.854 33.1772C13.2116 33.1873 13.5692 33.194 13.9235 33.1738C14.1765 33.1604 14.2305 33.2209 14.1596 33.4732C13.8526 34.5122 13.5692 35.5547 13.2757 36.5971C12.8979 37.9456 12.5133 39.2908 12.1421 40.6392C12.0949 40.8107 12.0274 40.8712 11.8486 40.8679C11.4303 40.8544 11.0086 40.8511 10.5868 40.8679C10.3945 40.8746 10.3204 40.8107 10.2697 40.6325C9.85815 39.1697 9.4398 37.7136 9.02145 36.2542C8.98095 36.1432 8.96407 36.0221 8.8629 35.8943Z" fill="#FEFEFD"/>
<path d="M9.6961 8.69609C8.99778 8.69609 8.31288 8.68941 7.62806 8.69946C7.43236 8.70284 7.37838 8.64231 7.3885 8.45399C7.40536 8.15474 7.39862 7.85204 7.39187 7.55279C7.3885 7.40816 7.42561 7.34091 7.58756 7.34091C8.74811 7.34764 9.90865 7.34427 11.0693 7.34427C11.157 7.34427 11.2582 7.31738 11.265 7.46534C11.2986 8.45736 11.1907 9.41571 10.5497 10.2329C9.75686 11.2451 8.6773 11.6452 7.42898 11.6386C5.65102 11.6251 4.18345 10.6801 3.60991 9.08954C2.57417 6.20765 4.68614 3.63513 7.29403 3.64186C8.64018 3.64522 9.74673 4.10592 10.5868 5.17192C10.7319 5.35351 10.7521 5.46449 10.5092 5.57882C10.2056 5.72342 9.9154 5.89828 9.63205 6.07651C9.49705 6.16058 9.433 6.15049 9.33176 6.01934C8.22858 4.60697 5.83995 4.876 5.10785 6.50694C4.37575 8.13456 5.28329 10.1858 7.52006 10.132C8.23533 10.1152 8.87298 9.94034 9.35538 9.37874C9.5173 9.19041 9.64893 8.97524 9.6961 8.69609Z" fill="#FEFEFE"/>
<path d="M5.89049 21.0576C5.84664 21.1451 5.76567 21.1182 5.69819 21.1182C5.32371 21.1215 4.94922 21.1115 4.57473 21.1215C4.40267 21.1283 4.36218 21.0644 4.36218 20.8996C4.36556 18.4851 4.36556 16.0673 4.36218 13.6528C4.36218 13.4982 4.39255 13.4208 4.57136 13.4241C5.53962 13.4376 6.50789 13.4073 7.47615 13.4511C8.8088 13.5116 9.79392 14.554 9.87822 15.9328C9.95585 17.1669 9.03147 18.3102 7.77305 18.5457C7.70892 18.5558 7.64817 18.576 7.5875 18.5928C7.13541 18.6499 6.67995 18.6062 6.22449 18.6196C5.92423 18.6264 5.91748 18.6297 5.91748 18.9257C5.91748 19.5444 5.91748 20.1632 5.91748 20.7819C5.91073 20.8761 5.92761 20.9702 5.89049 21.0576Z" fill="#FCFEFE"/>
<path d="M28.1539 11.4301C27.9211 11.5479 27.6748 11.4537 27.4353 11.484C27.4083 11.4874 27.3813 11.484 27.3543 11.484C27.162 11.484 26.9393 11.5411 26.7875 11.4638C26.6087 11.373 26.7774 11.1141 26.6863 10.9459C26.6694 10.9459 26.6458 10.9392 26.6357 10.9459C25.1884 12.2002 23.1202 11.6622 22.4354 9.84966C21.8889 8.40029 22.4827 6.77945 23.7916 6.09008C24.5002 5.72017 25.8429 5.68654 26.5648 6.45662C26.5918 6.48689 26.6323 6.50706 26.6661 6.53396C26.6863 6.50706 26.7032 6.49361 26.7032 6.48016C26.7268 5.97238 26.7234 5.97238 27.2295 5.97238C27.5297 5.97238 27.83 5.97238 28.1336 5.97238C28.1944 6.01946 28.1741 6.09008 28.1741 6.15061C28.1741 7.86561 28.1741 9.58401 28.1741 11.299C28.1741 11.3428 28.1775 11.3864 28.1539 11.4301Z" fill="#FEFEFE"/>
<path d="M17.9753 16.1885C17.9921 16.1582 17.9989 16.1515 17.9989 16.1448C18.0326 15.637 18.0326 15.637 18.5421 15.637C18.7782 15.637 19.0178 15.6437 19.2539 15.6337C19.4024 15.6269 19.4361 15.6807 19.4361 15.8219C19.4327 17.5168 19.4294 19.2116 19.4361 20.9065C19.4361 21.0982 19.3652 21.1318 19.1966 21.125C18.8862 21.115 18.5758 21.1082 18.2654 21.1284C18.0461 21.1419 17.9685 21.0712 17.9989 20.8594C18.0124 20.7719 18.0023 20.6845 18.0023 20.5332C17.6447 20.893 17.2736 21.125 16.8282 21.2226C15.6542 21.4781 14.5274 20.967 13.9301 19.9044C13.1441 18.5088 13.5725 16.7064 14.8681 15.8656C15.7553 15.2872 17.1858 15.3445 17.8977 16.1347C17.9146 16.1515 17.9382 16.165 17.9753 16.1885Z" fill="#FEFEFE"/>
<path d="M19.4833 9.32829C18.8727 9.32829 18.2587 9.33504 17.6481 9.32491C17.4456 9.32154 17.4018 9.38206 17.4928 9.56034C17.6042 9.78564 17.7492 9.97396 17.9719 10.1051C18.6231 10.4918 19.5238 10.4111 20.0805 9.89994C20.1581 9.82936 20.2053 9.79569 20.3065 9.85959C20.5933 10.0345 20.8869 10.2026 21.1837 10.364C21.3288 10.4414 21.3018 10.5053 21.2175 10.6129C20.6169 11.3695 19.8072 11.6419 18.876 11.6385C17.5569 11.6318 16.5178 10.9559 16.0961 9.84616C15.5158 8.32621 16.2108 6.58426 17.6616 6.04285C18.6231 5.68303 19.5947 5.70994 20.4483 6.34886C21.3625 7.03487 21.6999 7.98991 21.5784 9.11641C21.5582 9.30811 21.4739 9.33166 21.3153 9.33166C20.708 9.32154 20.094 9.32491 19.4833 9.32829C19.4833 9.32491 19.4833 9.32491 19.4833 9.32829Z" fill="#FEFEFD"/>
<path d="M30.3974 18.9693C29.7867 18.9693 29.1727 18.9761 28.5621 18.966C28.3664 18.9626 28.3125 19.0064 28.4035 19.1947C28.498 19.3897 28.6161 19.5545 28.7847 19.6856C29.355 20.1261 30.4581 20.0757 30.971 19.5713C31.0823 19.4603 31.1532 19.457 31.2712 19.5309C31.5276 19.6856 31.7874 19.8437 32.0539 19.9815C32.2462 20.0791 32.2125 20.1698 32.0978 20.3078C31.6018 20.903 30.9541 21.2056 30.195 21.2661C29.0985 21.3536 28.1067 21.1081 27.415 20.1866C26.6863 19.2182 26.6188 18.1354 27.1182 17.0627C27.6039 16.0235 28.4811 15.5292 29.6383 15.4788C31.4736 15.3947 32.7523 17.0559 32.4858 18.7911C32.4621 18.9525 32.3946 18.9761 32.2597 18.9761C31.6389 18.966 31.0182 18.9693 30.3974 18.9693Z" fill="#FEFEFE"/>
<path d="M30.0532 35.3831C29.3515 36.2405 28.7105 37.0442 28.0425 37.8278C27.8671 38.0363 27.8907 38.1539 28.0526 38.3456C28.7375 39.1594 29.4089 39.9866 30.1241 40.8576C29.554 40.8576 29.0377 40.8576 28.525 40.8576C28.4203 40.8576 28.3934 40.7735 28.3428 40.713C27.7861 40.0237 27.2328 39.3377 26.6761 38.6483C26.6289 38.5877 26.5951 38.507 26.4703 38.4768C26.4703 38.84 26.4703 39.1931 26.4703 39.5462C26.4703 39.9194 26.4636 40.2927 26.4703 40.6659C26.4737 40.824 26.4163 40.8677 26.2645 40.8644C25.9171 40.8542 25.5696 40.8542 25.222 40.8644C25.0567 40.8677 25.0264 40.8005 25.0264 40.6559C25.0297 38.2313 25.0297 35.8067 25.0264 33.3822C25.0264 33.2006 25.0972 33.1703 25.2524 33.1737C25.573 33.1804 25.8934 33.1871 26.2105 33.1703C26.4163 33.1602 26.4703 33.2241 26.4703 33.4292C26.4602 34.697 26.4636 35.9614 26.4636 37.2292C26.4636 37.3738 26.4636 37.515 26.4636 37.6596C26.4838 37.6664 26.5041 37.6764 26.5243 37.6832C26.8482 37.2729 27.1721 36.866 27.4926 36.4558C27.7355 36.1464 27.9717 35.837 28.2145 35.5277C28.2685 35.457 28.3158 35.3763 28.4271 35.3797C28.9501 35.3831 29.4696 35.3831 30.0532 35.3831Z" fill="#FEFEFE"/>
<path d="M11.3796 30.9207C9.76362 30.9274 8.47482 29.6765 8.47144 28.106C8.46807 26.391 9.71299 25.1199 11.3863 25.1199C12.999 25.1199 14.2878 26.3876 14.2945 27.9782C14.2979 29.6765 13.0766 30.914 11.3796 30.9207Z" fill="#FEFEFE"/>
<path d="M17.007 35.2184C18.7074 35.2385 19.9388 36.5197 19.9051 38.2449C19.8747 39.7581 18.596 41.073 16.8957 41.0225C15.2898 40.9754 14.055 39.7043 14.082 38.0801C14.109 36.4458 15.3842 35.1982 17.007 35.2184Z" fill="#FEFEFE"/>
<path d="M5.41817 27.7933C5.41817 26.8988 5.41142 26.0077 5.42491 25.1132C5.42828 24.9013 5.36081 24.8509 5.16176 24.8543C4.63208 24.8677 4.1024 24.8543 3.57272 24.861C3.40404 24.8644 3.34669 24.8106 3.35343 24.6424C3.36356 24.3163 3.36018 23.9867 3.35681 23.6572C3.35343 23.5294 3.37367 23.4587 3.53224 23.4587C5.30683 23.4621 7.07804 23.4621 8.8526 23.4587C8.97747 23.4587 9.0281 23.489 9.02472 23.6235C9.0146 23.9698 9.0146 24.3163 9.02472 24.6626C9.03147 24.8274 8.96397 24.8576 8.81555 24.8576C8.3027 24.8509 7.78992 24.8677 7.28047 24.8509C7.01732 24.8408 6.92623 24.898 6.9296 25.1905C6.94647 26.9493 6.93635 28.708 6.9431 30.4668C6.9431 30.6853 6.89924 30.7762 6.6597 30.7627C6.34257 30.7425 6.01869 30.7425 5.70155 30.7627C5.46202 30.7762 5.41479 30.682 5.41817 30.4634C5.42153 29.579 5.41479 28.6879 5.41817 27.7933Z" fill="#FEFEFE"/>
<path d="M23.8962 21.2764C21.9564 21.2764 20.7587 20.1532 20.6473 18.5593C20.5428 17.0225 21.5919 15.7009 23.1304 15.5092C24.2707 15.3646 25.239 15.7177 25.9171 16.6997C26.0183 16.8477 26.0149 16.925 25.8496 17.0125C25.5528 17.1705 25.2592 17.3386 24.9759 17.5236C24.8409 17.611 24.7869 17.5807 24.6992 17.4631C24.3112 16.9351 23.6128 16.7434 23.0123 16.9788C22.3713 17.231 22.0204 17.833 22.0879 18.5526C22.1487 19.2049 22.6074 19.7396 23.2383 19.8406C23.8254 19.9347 24.3517 19.8035 24.7194 19.2958C24.797 19.1881 24.851 19.1545 24.9759 19.2285C25.2727 19.4101 25.573 19.5816 25.88 19.743C26.0352 19.8237 26.0419 19.9044 25.9475 20.0389C25.3605 20.8628 24.5541 21.263 23.8962 21.2764Z" fill="#FDFEFD"/>
<path d="M31.5445 4.45569C31.5445 4.9063 31.5512 5.32328 31.5411 5.74027C31.5377 5.91177 31.5816 5.98239 31.7672 5.9723C32.0505 5.95885 32.3339 5.97566 32.6174 5.96557C32.7624 5.96221 32.8063 6.00929 32.8029 6.15389C32.7928 6.49017 32.7928 6.82645 32.8029 7.16608C32.8063 7.31741 32.7422 7.3544 32.6072 7.35104C32.3137 7.34767 32.0235 7.35776 31.73 7.3544C31.5917 7.35104 31.5411 7.39812 31.5445 7.54275C31.5512 8.23545 31.5411 8.92815 31.5479 9.62092C31.5512 9.9774 31.6997 10.132 32.0539 10.1758C32.1619 10.1892 32.2732 10.1993 32.3812 10.1993C32.7995 10.1993 32.7995 10.1993 32.7995 10.6331C32.7995 10.734 32.7995 10.8349 32.7995 10.9324C32.7995 11.5074 32.7995 11.5074 32.2193 11.5276C31.9527 11.5377 31.6895 11.5175 31.4297 11.4704C30.5661 11.3158 30.1478 10.7878 30.1343 9.8193C30.1241 9.08287 30.1241 8.34307 30.1376 7.60657C30.141 7.39475 30.0701 7.33086 29.8778 7.3544C29.8137 7.36113 29.7497 7.3544 29.6855 7.3544C29.1728 7.3544 29.1728 7.3544 29.1728 6.83317C29.1728 6.81636 29.1728 6.79618 29.1728 6.77937C29.1863 6.52716 29.0681 6.2077 29.2132 6.03619C29.3651 5.8546 29.6923 5.98575 29.9453 5.97903C30.114 5.97566 30.141 5.90841 30.1343 5.76717C30.1241 5.52169 30.1343 5.2762 30.1309 5.03072C30.1309 4.94329 30.1343 4.86931 30.2388 4.84577C30.3198 4.8256 30.3941 4.79533 30.4716 4.77179C30.8157 4.66754 31.1666 4.56666 31.5445 4.45569Z" fill="#FEFDFE"/>
<path d="M10.8871 17.3149C10.8871 16.1313 10.8938 14.9476 10.8804 13.7638C10.877 13.5587 10.9309 13.4948 11.1367 13.5083C11.4539 13.5251 11.7744 13.5217 12.0949 13.5083C12.2737 13.5016 12.3243 13.5587 12.3243 13.737C12.3175 14.9845 12.3209 16.2322 12.3209 17.4763C12.3209 18.6063 12.3142 19.7328 12.3243 20.8627C12.3243 21.0611 12.2805 21.1384 12.0679 21.125C11.7508 21.1048 11.4303 21.1081 11.1097 21.1216C10.9276 21.1283 10.8804 21.0645 10.8804 20.8896C10.8904 19.6992 10.8871 18.5054 10.8871 17.3149Z" fill="#FEFEFD"/>
<path d="M22.3342 40.8509C21.9159 40.8543 21.4941 40.8543 21.0758 40.8677C20.8565 40.8745 20.9037 40.7299 20.9037 40.6155C20.9004 39.3881 20.9004 38.1573 20.9004 36.9299C20.9004 36.4826 20.9071 36.0388 20.897 35.5916C20.8936 35.4167 20.951 35.3729 21.1163 35.3797C21.4435 35.3897 21.7742 35.3897 22.1014 35.3797C22.2735 35.3729 22.3511 35.4133 22.3342 35.6016C22.3173 35.7799 22.3308 35.9615 22.3511 36.1531C22.5974 35.7563 22.9314 35.4839 23.37 35.3427C23.9266 35.1611 24.0076 35.2183 24.0076 35.7899C24.0076 36.0522 23.9975 36.3179 24.011 36.5802C24.0211 36.7718 23.9806 36.8391 23.7613 36.8357C22.9719 36.8291 22.4489 37.2629 22.3612 37.9589C22.3612 38.8333 22.3612 39.7042 22.3612 40.5785C22.3612 40.6727 22.3882 40.7669 22.3342 40.8509Z" fill="#FEFEFE"/>
<path d="M13.5252 6.7458C13.8728 6.24811 14.3046 5.95555 14.8883 5.88493C15.0569 5.86475 15.1345 5.8883 15.1277 6.08333C15.1143 6.46669 15.1176 6.85004 15.1277 7.23004C15.1311 7.38809 15.0941 7.44862 14.9186 7.45199C14.0752 7.4688 13.5927 7.90259 13.559 8.72984C13.5218 9.55709 13.532 10.3877 13.5353 11.215C13.5353 11.4234 13.4882 11.5042 13.2655 11.4873C12.9753 11.4671 12.6818 11.4772 12.3883 11.484C12.2432 11.4873 12.1825 11.4571 12.1825 11.2923C12.1892 9.58731 12.1859 7.88579 12.1825 6.18086C12.1825 6.03962 12.2027 5.96228 12.3748 5.969C12.6953 5.98245 13.0158 5.97909 13.3329 5.969C13.5017 5.96228 13.532 6.03626 13.5252 6.18086C13.5185 6.36917 13.5252 6.55748 13.5252 6.7458Z" fill="#FEFEFE"/>
<path d="M28.1539 11.4302C28.1505 9.78246 28.1472 8.13801 28.1438 6.49028C28.1438 6.31878 28.137 6.14391 28.1337 5.97241C28.2281 6.03631 28.2045 6.13383 28.2045 6.22126C28.2045 7.87912 28.2045 9.53699 28.2045 11.1948C28.2045 11.2789 28.218 11.3629 28.1539 11.4302Z" fill="#BF0000"/>
<path d="M5.89054 21.0576C5.88717 20.301 5.88717 19.5477 5.88042 18.7911C5.87705 18.6365 5.92428 18.5894 6.07947 18.5894C6.58216 18.5994 7.08484 18.5961 7.58415 18.5961C7.29739 18.7138 6.99375 18.6431 6.70024 18.6465C5.93778 18.6599 5.93778 18.6499 5.94114 19.4099C5.94114 19.8638 5.94452 20.3144 5.94114 20.7684C5.93778 20.8693 5.96476 20.9735 5.89054 21.0576Z" fill="#BA0008"/>
<path d="M22.3341 40.851C22.3341 39.9766 22.3341 39.1056 22.3341 38.2314C22.3341 38.1405 22.3139 38.0497 22.3611 37.9623C22.4219 38.4667 22.378 38.9745 22.3881 39.4789C22.3949 39.8421 22.3915 40.2019 22.3881 40.5651C22.3881 40.6626 22.4185 40.7702 22.3341 40.851Z" fill="#B60006"/>
<path d="M3.52222 51.7969C3.52897 50.7074 3.84272 49.7456 4.73677 49.0327C6.05252 47.9836 8.74815 48.0239 9.7704 49.897C9.91545 50.1626 9.99982 50.4484 10.0706 50.741C10.1044 50.8856 10.0571 50.9125 9.92895 50.9226C9.5646 50.9495 9.20025 50.9865 8.8392 51.0235C8.72115 51.0336 8.6469 51.037 8.60647 50.8822C8.35005 49.8634 7.48299 49.5001 6.66317 49.591C5.71515 49.6952 5.06064 50.3745 4.95943 51.3631C4.89871 51.9785 4.92569 52.5838 5.2597 53.1319C5.67466 53.8112 6.30218 54.0702 7.07139 54.0097C7.85745 53.9491 8.37705 53.5355 8.59635 52.7755C8.63677 52.6342 8.69415 52.5939 8.8392 52.6074C9.20362 52.6477 9.56798 52.6713 9.93232 52.6981C10.0639 52.7083 10.1145 52.7318 10.0774 52.8966C9.79402 54.1946 8.7279 55.1194 7.32105 55.2337C6.22121 55.3211 5.21246 55.0891 4.41626 54.2585C3.755 53.5725 3.52897 52.7284 3.52222 51.7969Z" fill="#FDFEFE"/>
<path d="M39.0039 54.7157C38.2346 55.3411 37.4452 55.395 36.6355 55.0351C35.809 54.6686 35.4614 53.9524 35.394 53.0881C35.3468 52.4996 35.4277 51.9246 35.7516 51.4101C36.4061 50.3609 37.8804 50.0885 38.8622 50.8384C38.9465 50.7913 38.9027 50.7073 38.9027 50.6434C38.906 49.9237 38.9162 49.2041 38.8993 48.4845C38.8925 48.2357 38.9702 48.1718 39.2063 48.1886C39.4694 48.2087 39.736 48.2054 40.0025 48.1886C40.1746 48.1785 40.2218 48.2323 40.2151 48.4004C40.205 48.9115 40.2117 49.4227 40.2117 49.9305C40.2117 51.5547 40.2016 53.1755 40.2185 54.7964C40.2218 55.0923 40.1307 55.1731 39.8574 55.136C39.6955 55.1158 39.5268 55.1192 39.3649 55.136C39.0916 55.1731 38.8892 55.136 39.0039 54.7157Z" fill="#FEFEFE"/>
<path d="M13.4612 53.2663C13.0058 53.2663 12.547 53.2763 12.0915 53.2629C11.906 53.2561 11.8756 53.3234 11.9093 53.4848C11.9802 53.8211 12.2366 54.0902 12.5841 54.1541C12.9721 54.2246 13.3466 54.1978 13.5929 53.8447C13.6805 53.7203 13.7514 53.6765 13.8965 53.6866C14.1968 53.7068 14.497 53.7169 14.8007 53.7236C14.9761 53.7269 15.0165 53.7908 14.9525 53.959C14.7062 54.6114 14.2136 54.9779 13.5625 55.1595C12.574 55.4319 11.5247 55.1124 10.958 54.3962C10.2292 53.4748 10.2528 51.437 11.6259 50.7038C12.5875 50.1927 13.9268 50.3911 14.5577 51.1712C14.9423 51.6488 15.0536 52.2137 15.0401 52.8123C15.03 53.2663 15.0368 53.2663 14.5814 53.2663C14.2103 53.2663 13.8357 53.2663 13.4612 53.2663Z" fill="#FDFDFE"/>
<path d="M33.4135 53.2664C32.9648 53.2664 32.5161 53.2799 32.0707 53.2598C31.8514 53.2496 31.8279 53.3438 31.8784 53.5119C31.9797 53.8684 32.2057 54.1004 32.5768 54.1576C32.9614 54.2181 33.3291 54.1879 33.5754 53.8213C33.6227 53.7541 33.6429 53.6767 33.7509 53.6834C34.0983 53.7036 34.4425 53.7171 34.79 53.7305C34.9418 53.7373 34.9722 53.7944 34.9215 53.9357C34.6854 54.6082 34.1827 54.9815 33.5214 55.1597C32.9715 55.3076 32.4149 55.2875 31.8784 55.0891C31.0249 54.7697 30.5694 54.1172 30.4682 53.2362C30.3738 52.4022 30.5019 51.6019 31.1767 51.0101C31.9459 50.3341 32.8501 50.2568 33.7644 50.6132C34.6416 50.9528 34.9688 51.7028 34.9958 52.5973C35.016 53.2631 35.0059 53.2631 34.3446 53.2631C34.0377 53.2664 33.7272 53.2664 33.4135 53.2664Z" fill="#FEFEFE"/>
<path d="M25.3536 53.3941C25.3536 52.8931 25.3435 52.3921 25.357 51.891C25.3638 51.6926 25.2963 51.6523 25.1108 51.6523C24.5001 51.6589 24.5001 51.6489 24.5035 51.02C24.5035 50.5392 24.5035 50.5392 24.9859 50.5392C25.3503 50.5392 25.3503 50.5392 25.3503 50.1625C25.3503 49.11 25.799 48.4441 26.6728 48.2121C26.9663 48.1348 27.27 48.1348 27.5702 48.1415C27.7052 48.1449 27.7625 48.1919 27.7557 48.3365C27.7456 48.5989 27.7456 48.8645 27.7557 49.1302C27.7625 49.2748 27.6951 49.2882 27.5769 49.2916C26.8449 49.3017 26.5344 49.6918 26.6526 50.4282C26.6728 50.556 26.7436 50.5392 26.8246 50.5392C27.0709 50.5392 27.3172 50.5459 27.5634 50.5358C27.6951 50.5324 27.7625 50.556 27.7557 50.7106C27.7422 50.9662 27.7456 51.2218 27.7557 51.4774C27.7625 51.6253 27.7052 51.6657 27.5634 51.6589C27.334 51.6489 27.1047 51.6691 26.8786 51.6556C26.6964 51.6455 26.6492 51.706 26.6492 51.8842C26.6559 52.8864 26.6458 53.8885 26.6593 54.8906C26.6627 55.1024 26.6019 55.1563 26.3995 55.1428C26.1363 55.126 25.8699 55.1226 25.6067 55.1428C25.3773 55.1629 25.3401 55.0688 25.3469 54.8671C25.3604 54.3794 25.3536 53.8885 25.3536 53.3941Z" fill="#FEFEFE"/>
<path d="M22.0609 53.986C22.0609 54.3391 22.0609 54.6821 22.0609 55.0285C22.0609 55.0957 22.0575 55.163 21.9698 55.1663C21.3861 55.2067 20.7991 55.2773 20.2661 54.9511C19.8579 54.7023 19.6622 54.3223 19.6521 53.8582C19.6386 53.2025 19.6419 52.5467 19.6554 51.891C19.6588 51.696 19.6014 51.6523 19.4125 51.6523C18.8187 51.6589 18.8187 51.6523 18.8187 51.0671C18.8187 50.5392 18.8187 50.5224 19.3619 50.5426C19.6048 50.5526 19.6723 50.4887 19.6588 50.2466C19.6386 49.9036 19.6689 49.5538 19.6554 49.2075C19.6487 49.0293 19.7127 48.9923 19.8747 48.999C20.1648 49.0091 20.4584 49.0125 20.7519 48.999C20.9239 48.9923 20.9914 49.0293 20.9813 49.221C20.961 49.5942 20.9779 49.9675 20.9644 50.3407C20.9577 50.4955 21.0015 50.5459 21.1601 50.5392C21.4064 50.5257 21.6527 50.5426 21.8989 50.5324C22.0305 50.5257 22.071 50.5728 22.0677 50.7006C22.0575 50.9629 22.0575 51.2285 22.0677 51.4942C22.0744 51.6321 22.0204 51.6623 21.8922 51.6589C21.6628 51.6489 21.4334 51.6691 21.2073 51.6523C21.0218 51.6388 20.9543 51.6892 20.961 51.8876C20.9745 52.3517 20.9577 52.8157 20.9577 53.2798C20.9577 53.8213 21.2478 54.0802 21.791 54.0264C21.872 54.023 21.9529 54.0062 22.0609 53.986Z" fill="#FEFEFE"/>
<path d="M17.0172 51.0134C17.3376 50.6434 17.6919 50.5157 18.1001 50.482C18.2385 50.472 18.2958 50.5123 18.2925 50.6569C18.2823 50.9562 18.2823 51.2589 18.2925 51.5581C18.2958 51.696 18.2621 51.7363 18.117 51.7532C17.6211 51.8137 17.2263 52.0255 17.1015 52.5535C17.0644 52.7116 17.0712 52.8797 17.0712 53.0411C17.0678 53.67 17.0644 54.2954 17.0712 54.9243C17.0745 55.0891 17.034 55.1496 16.8586 55.1428C16.5482 55.1294 16.2378 55.1328 15.9274 55.1428C15.7959 55.1462 15.7554 55.1059 15.7587 54.9748C15.7621 53.5456 15.7621 52.1164 15.7587 50.6872C15.7587 50.5459 15.8127 50.5224 15.9342 50.5258C16.2075 50.5325 16.4841 50.5426 16.754 50.5224C16.9632 50.509 17.061 50.5627 17.0205 50.7847C17.007 50.8385 17.0172 50.8923 17.0172 51.0134Z" fill="#FDFEFE"/>
<path d="M28.5317 52.8193C28.5317 52.1433 28.5418 51.4708 28.525 50.7949C28.5182 50.5696 28.5924 50.5225 28.7982 50.5359C29.0715 50.5527 29.3482 50.5527 29.6214 50.5359C29.8103 50.5225 29.8441 50.5964 29.8441 50.768C29.8373 52.1534 29.8373 53.5389 29.8441 54.9244C29.8441 55.0824 29.8171 55.1564 29.6383 55.1463C29.3482 55.1295 29.0512 55.1261 28.7611 55.1463C28.552 55.1597 28.5283 55.0757 28.5317 54.8975C28.5385 54.2047 28.5351 53.512 28.5317 52.8193Z" fill="#FEFEFE"/>
<path d="M22.7222 52.8158C22.7222 52.123 22.7289 51.4337 22.7188 50.7409C22.7154 50.5728 22.7627 50.519 22.9313 50.5257C23.2418 50.5392 23.5521 50.5358 23.8625 50.5291C23.9941 50.5257 24.0346 50.5728 24.0346 50.7006C24.0312 52.1197 24.0312 53.5388 24.0346 54.9579C24.0346 55.1025 23.9907 55.1462 23.8457 55.1428C23.5352 55.1328 23.2249 55.1328 22.9145 55.1428C22.7593 55.1496 22.7188 55.0957 22.7188 54.9411C22.7255 54.2349 22.7222 53.5253 22.7222 52.8158Z" fill="#FEFEFE"/>
<path d="M5.45873 58.6367C6.24819 58.6569 6.78461 59.2252 6.76099 60.0155C6.73738 60.7822 6.16047 61.327 5.39125 61.3034C4.59843 61.2799 4.05526 60.7149 4.0755 59.9314C4.09574 59.1512 4.6659 58.6132 5.45873 58.6367Z" fill="#FBFCFC"/>
<path d="M7.09493 59.9717C7.09155 59.3732 7.38507 58.9124 7.8911 58.7275C8.43095 58.5291 9.03147 58.6602 9.37557 59.0537C9.42282 59.1075 9.47345 59.1647 9.50375 59.2319C9.55775 59.353 9.686 59.5144 9.58475 59.5985C9.48357 59.6792 9.2912 59.6556 9.1394 59.6657C9.04497 59.6724 9.06522 59.5783 9.03822 59.5278C8.87292 59.2118 8.6705 59.0974 8.3027 59.1243C8.0126 59.1445 7.78992 59.3261 7.68867 59.6287C7.46942 60.2744 7.83717 60.8595 8.44445 60.8292C8.7143 60.8158 8.90997 60.6914 9.0281 60.4459C9.0989 60.2945 9.37557 60.224 9.55437 60.3383C9.70617 60.4324 9.57125 60.5636 9.52737 60.6611C9.29795 61.1655 8.71767 61.3976 8.05647 61.2664C7.51325 61.1588 7.13541 60.6947 7.09155 60.0894C7.09155 60.0457 7.09493 60.0087 7.09493 59.9717Z" fill="#FAFCFD"/>
<path d="M26.5648 61.2834C26.0318 61.2868 25.6539 61.0547 25.5493 60.6747C25.5088 60.5335 25.492 60.4326 25.7046 60.4427C25.8901 60.4528 26.0588 60.4057 26.1667 60.6478C26.2511 60.8395 26.6154 60.8798 26.8077 60.7689C26.9899 60.6613 26.9967 60.4494 26.8212 60.325C26.6998 60.2375 26.5513 60.2173 26.413 60.1703C26.2848 60.1266 26.1465 60.0997 26.0217 60.0493C25.7382 59.9315 25.5561 59.7331 25.5729 59.4036C25.5898 59.0707 25.7585 58.8352 26.0622 58.7108C26.5783 58.499 27.2126 58.7108 27.3745 59.1514C27.4049 59.2321 27.5229 59.3767 27.3543 59.417C27.2025 59.4507 26.9933 59.5684 26.882 59.3531C26.7571 59.1144 26.5749 59.0572 26.3354 59.1278C26.2106 59.1648 26.133 59.2489 26.1228 59.3834C26.1127 59.5213 26.187 59.6087 26.3118 59.6491C26.4839 59.7062 26.6627 59.7466 26.8347 59.8004C27.3239 59.9584 27.5263 60.2005 27.4893 60.5772C27.4454 60.9942 27.1552 61.2363 26.6526 61.2766C26.6121 61.28 26.5783 61.2834 26.5648 61.2834Z" fill="#F9FCFC"/>
<path d="M37.0875 60.0422C37.074 60.3079 37.0302 60.6139 36.8581 60.8829C36.4904 61.458 35.7009 61.4445 35.3771 60.8425C35.0734 60.2776 35.0869 59.6857 35.3636 59.1107C35.512 58.8013 35.7853 58.6366 36.1362 58.6366C36.4904 58.6366 36.7401 58.8215 36.902 59.1242C37.0504 59.3965 37.0875 59.6925 37.0875 60.0422Z" fill="#FBFDFD"/>
<path d="M21.349 59.9952C21.3591 60.2003 21.3119 60.4324 21.2343 60.6577C21.0994 61.041 20.7653 61.2966 20.401 61.3066C20.0535 61.3168 19.7094 61.0847 19.5643 60.7048C19.372 60.2003 19.3686 59.6892 19.5845 59.1881C19.733 58.8384 20.0063 58.64 20.3909 58.6366C20.7822 58.6333 21.0386 58.8485 21.1972 59.1881C21.3086 59.4336 21.349 59.6959 21.349 59.9952Z" fill="#FBFDFD"/>
<path d="M17.1285 59.9584C17.1183 60.298 17.0711 60.6142 16.8957 60.8899C16.5381 61.4515 15.7486 61.4448 15.4281 60.863C15.1143 60.2913 15.1211 59.6894 15.4079 59.1076C15.5563 58.8016 15.8296 58.6301 16.1838 58.6402C16.5347 58.6503 16.7877 58.8251 16.9497 59.1312C17.0846 59.3935 17.1183 59.6827 17.1285 59.9584Z" fill="#FBFDFC"/>
<path d="M30.0701 59.9449C30.0701 59.5885 30.0769 59.2354 30.0668 58.879C30.0635 58.7209 30.114 58.6805 30.2659 58.6839C30.5864 58.694 30.9068 58.6772 31.224 58.6906C31.6963 58.7108 31.9932 59.037 31.9865 59.5111C31.9831 59.9819 31.6761 60.3014 31.2105 60.3249C31.1936 60.3249 31.1734 60.3249 31.1565 60.3249C30.6066 60.335 30.6066 60.335 30.6066 60.9034C30.6066 61.2463 30.5087 61.3136 30.168 61.2463C30.0365 61.2194 30.0701 61.1353 30.0701 61.0614C30.0668 60.6949 30.0668 60.3182 30.0701 59.9449C30.0668 59.9449 30.0701 59.9449 30.0701 59.9449Z" fill="#FAFDFD"/>
<path d="M27.9313 59.9751C27.9313 59.6018 27.938 59.2286 27.9279 58.8553C27.9245 58.7242 27.9684 58.6871 28.0966 58.6871C28.5352 58.6939 28.9738 58.7007 29.4123 58.6839C29.6013 58.6771 29.5912 58.778 29.5878 58.9024C29.5844 59.0234 29.6249 59.1647 29.4089 59.1513C29.1526 59.1378 28.8962 59.1613 28.6431 59.1445C28.4238 59.1311 28.4576 59.2757 28.4744 59.3934C28.4879 59.511 28.3699 59.7128 28.6397 59.7027C28.832 59.696 29.0243 59.7195 29.2133 59.6993C29.4393 59.6758 29.4292 59.8002 29.4393 59.9583C29.4494 60.1298 29.3989 60.1802 29.2301 60.1668C29.048 60.1533 28.8624 60.1769 28.6836 60.1601C28.4947 60.1399 28.4441 60.2206 28.4677 60.3887C28.4778 60.4593 28.4744 60.5333 28.4677 60.6073C28.4542 60.7385 28.5014 60.7822 28.6364 60.7788C28.8928 60.7688 29.1492 60.7889 29.4023 60.7721C29.6114 60.7586 29.5912 60.8831 29.5844 61.0142C29.5777 61.1285 29.6384 61.2698 29.4157 61.263C28.9772 61.2462 28.5386 61.2496 28.1 61.263C27.938 61.2664 27.9279 61.1924 27.9313 61.068C27.9347 60.7015 27.9313 60.3383 27.9313 59.9751Z" fill="#F7FDFD"/>
<path d="M33.9096 60.7756C34.1963 60.7756 34.4156 60.7856 34.6315 60.7722C34.8609 60.7587 34.7833 60.9235 34.7934 61.0311C34.8036 61.1455 34.8306 61.2665 34.6315 61.2598C34.2469 61.2464 33.8623 61.2598 33.4811 61.253C33.39 61.2497 33.2382 61.3136 33.2145 61.206C33.1842 61.0681 33.1437 60.9033 33.2685 60.7655C33.5283 60.483 33.7847 60.2005 34.0411 59.9147C34.1794 59.76 34.2672 59.5885 34.2503 59.3699C34.2402 59.2354 34.1895 59.1413 34.0479 59.1177C33.8994 59.0942 33.8049 59.1547 33.751 59.2959C33.697 59.4371 33.4305 59.5246 33.2685 59.4371C33.1134 59.353 33.2314 59.2253 33.2584 59.1311C33.3663 58.7612 33.7139 58.5763 34.1525 58.6368C34.5506 58.6939 34.7766 58.9395 34.7901 59.3329C34.8036 59.7163 34.618 60.0122 34.3751 60.2812C34.2334 60.4359 34.0951 60.5771 33.9096 60.7756Z" fill="#F9FCFD"/>
<path d="M38.1368 60.7789C38.4167 60.7789 38.6327 60.789 38.8486 60.7756C39.0746 60.7621 39.0071 60.9202 39.0105 61.0345C39.0173 61.1455 39.0544 61.2732 38.852 61.2631C38.4775 61.2497 38.103 61.2665 37.7285 61.2564C37.6239 61.253 37.4586 61.3438 37.4249 61.1892C37.3911 61.0412 37.3743 60.8764 37.516 60.7351C37.7657 60.483 37.995 60.214 38.2346 59.9516C38.3864 59.7835 38.491 59.5986 38.464 59.3632C38.4505 59.2287 38.3965 59.1379 38.2514 59.1244C38.1165 59.1109 38.0254 59.1682 37.9715 59.2925C37.9107 59.4338 37.5531 59.5313 37.4451 59.4371C37.4046 59.4001 37.4215 59.3564 37.4215 59.3128C37.4451 58.9193 37.7657 58.6435 38.2109 58.6402C38.6664 58.6368 38.9667 58.8856 39.0004 59.2959C39.0274 59.6221 38.9093 59.9046 38.7035 60.1501C38.5382 60.3451 38.3561 60.5334 38.1368 60.7789Z" fill="#FAFDFD"/>
<path d="M13.9977 60.7788C14.2777 60.7788 14.4869 60.7957 14.6893 60.7755C14.9221 60.7519 14.8816 60.8999 14.885 61.0344C14.8884 61.1656 14.9086 61.2765 14.6994 61.2664C14.325 61.2463 13.9505 61.2665 13.5794 61.2563C13.4849 61.253 13.3263 61.3303 13.2993 61.1924C13.2723 61.0546 13.2352 60.8932 13.3668 60.7586C13.6266 60.4896 13.8695 60.2105 14.1192 59.9314C14.2575 59.7767 14.352 59.6086 14.3385 59.39C14.3283 59.2521 14.2912 59.1378 14.1293 59.1176C13.9809 59.1008 13.8729 59.1613 13.8391 59.3059C13.7649 59.6287 13.5186 59.4438 13.377 59.4337C13.1847 59.4202 13.3095 59.2488 13.3365 59.1546C13.4444 58.7713 13.802 58.5762 14.2406 58.6435C14.6488 58.7074 14.8681 58.9596 14.8749 59.3665C14.8782 59.7262 14.7096 60.0088 14.4768 60.2643C14.3385 60.419 14.1933 60.5704 13.9977 60.7788Z" fill="#FAFDFD"/>
<path d="M18.2251 60.7755C18.5119 60.7755 18.7311 60.7856 18.947 60.7721C19.1764 60.7621 19.0955 60.9235 19.1056 61.0345C19.1158 61.1488 19.1427 61.2698 18.9436 61.2631C18.5624 61.2496 18.1778 61.2632 17.7966 61.2564C17.7055 61.2564 17.5503 61.3135 17.5267 61.2093C17.4964 61.0714 17.4525 60.9067 17.5773 60.7721C17.8371 60.4897 18.0868 60.2038 18.3465 59.9247C18.4882 59.77 18.5725 59.5985 18.559 59.3834C18.5523 59.2522 18.5085 59.1513 18.3667 59.1244C18.2183 59.0941 18.1171 59.1614 18.0665 59.2959C18.0395 59.3665 18.0699 59.4741 17.9416 59.464C17.8067 59.4539 17.6684 59.4472 17.5368 59.4271C17.5267 59.4271 17.5166 59.3463 17.52 59.3059C17.5503 58.8957 17.8776 58.6267 18.333 58.6334C18.7986 58.6402 19.0854 58.9092 19.0955 59.343C19.1023 59.6692 18.974 59.9449 18.7648 60.1837C18.6097 60.3686 18.441 60.5468 18.2251 60.7755Z" fill="#F9FDFD"/>
<path d="M11.2481 60.2274C11.2481 60.5199 11.2447 60.8091 11.2481 61.1017C11.2515 61.3741 11.0457 61.2329 10.9309 61.253C10.823 61.2766 10.7016 61.2934 10.7049 61.0949C10.7184 60.5132 10.7049 59.9315 10.7117 59.3497C10.7151 59.1984 10.6746 59.1345 10.516 59.1513C10.381 59.1647 10.2427 59.1412 10.1078 59.158C9.89185 59.1815 9.82098 59.1042 9.83448 58.889C9.8446 58.7377 9.87835 58.6872 10.0369 58.6906C10.6678 58.6973 11.2953 58.7007 11.9262 58.6906C12.105 58.6872 12.1185 58.7713 12.105 58.9025C12.0949 59.0201 12.1488 59.1547 11.9329 59.1614C11.7069 59.1681 11.4033 59.0303 11.2751 59.2354C11.1738 59.4002 11.2515 59.6759 11.2481 59.9045C11.2481 60.0088 11.2481 60.1198 11.2481 60.2274Z" fill="#F8FDFD"/>
<path d="M23.3598 48.2458C23.8186 48.2424 24.1459 48.572 24.1459 49.0327C24.1459 49.4765 23.8253 49.796 23.3699 49.7993C22.9212 49.8061 22.5872 49.4833 22.5838 49.0427C22.5737 48.5854 22.9043 48.2458 23.3598 48.2458Z" fill="#FCFDFD"/>
<path d="M29.9589 49.0125C29.9623 49.4698 29.6316 49.7993 29.1661 49.8027C28.7376 49.8027 28.4037 49.4765 28.3935 49.0495C28.3834 48.5921 28.7208 48.2492 29.1729 48.2458C29.6249 48.2424 29.9556 48.5652 29.9589 49.0125Z" fill="#FDFEFE"/>
<path d="M39.7528 59.4002C39.7258 59.4068 39.7022 59.417 39.6786 59.4237C39.5841 59.4506 39.5031 59.6759 39.3884 59.4506C39.3142 59.306 39.132 59.1547 39.4154 59.0235C39.6617 58.9092 39.8337 58.6435 40.161 58.6738C40.296 58.6872 40.3263 58.7243 40.3263 58.8486C40.323 59.5918 40.3162 60.3383 40.3297 61.0815C40.3331 61.2968 40.2048 61.2665 40.0868 61.253C39.9687 61.2396 39.7764 61.3539 39.7831 61.0849C39.7932 60.6141 39.7865 60.14 39.7831 59.6692C39.7797 59.5817 39.8067 59.4909 39.7528 59.4002Z" fill="#F4FDFE"/>
<path d="M23.4205 60.5703C23.2012 60.5703 22.9819 60.5637 22.7626 60.5737C22.5298 60.5838 22.6277 60.4123 22.6108 60.3081C22.594 60.187 22.6041 60.1029 22.7728 60.1097C23.2114 60.1197 23.65 60.1231 24.0885 60.1097C24.2842 60.1029 24.2572 60.2172 24.2539 60.335C24.2505 60.456 24.2943 60.5973 24.0784 60.5805C23.8591 60.5603 23.6398 60.5737 23.4205 60.5703Z" fill="#F3FEFE"/>
<path d="M42.9848 67.4506C43.1164 67.2152 43.4031 66.6401 43.4031 66.6401H43.7844L43.7911 68.0222H43.3425L43.3323 67.5649L43.0928 68.0222H42.8802L42.6002 67.6288L42.6036 68.0222H42.3876H42.1785V66.6503L42.6137 66.6401C42.6103 66.6435 42.8465 67.2051 42.9848 67.4506Z" fill="#011E77"/>
<path d="M5.88041 16.0235C5.88041 15.694 5.88378 15.3678 5.87703 15.0383C5.87366 14.9105 5.91414 14.8634 6.04572 14.8634C6.47418 14.8701 6.90602 14.8499 7.33449 14.8701C7.91813 14.897 8.34998 15.398 8.34998 16.0168C8.34998 16.6423 7.91138 17.14 7.30412 17.1702C6.88578 17.1938 6.46407 17.1702 6.04235 17.177C5.9074 17.1803 5.87366 17.1299 5.87366 17.0021C5.88716 16.6793 5.88041 16.3497 5.88041 16.0235Z" fill="#F90000"/>
<path d="M23.6837 8.73976C23.6702 7.85536 24.2876 7.20297 25.1648 7.18953C26.0385 7.17271 26.7032 7.82506 26.7133 8.71284C26.7268 9.60061 26.0824 10.2665 25.2052 10.2766C24.318 10.2866 23.7006 9.66114 23.6837 8.73976Z" fill="#FA0000"/>
<path d="M18.0057 18.3809C18.0057 19.2821 17.3781 19.9177 16.4807 19.9211C15.6002 19.9244 14.976 19.2788 14.9727 18.3641C14.9727 17.4864 15.6137 16.834 16.4807 16.834C17.3714 16.8374 18.0057 17.483 18.0057 18.3809Z" fill="#F90000"/>
<path d="M17.4052 8.20853C17.5738 7.52588 18.0091 7.16943 18.7041 7.11226C19.3181 7.06182 19.8579 7.38128 20.0873 7.92945C20.1682 8.12108 20.1784 8.21865 19.9119 8.2119C19.0819 8.1984 18.252 8.20853 17.4052 8.20853Z" fill="#F80000"/>
<path d="M29.6823 17.8664C29.2909 17.8664 28.8996 17.863 28.5082 17.8664C28.3631 17.8664 28.2855 17.8529 28.353 17.668C28.552 17.1098 29.0277 16.7768 29.6789 16.7634C30.3267 16.7499 30.7888 17.0459 31.0149 17.5973C31.0992 17.8025 31.0587 17.8697 30.8327 17.863C30.4515 17.8496 30.0669 17.8597 29.6856 17.8597C29.6823 17.863 29.6823 17.8664 29.6823 17.8664Z" fill="#F80101"/>
<path d="M12.8708 27.9951C12.8775 28.8727 12.2601 29.5218 11.4066 29.5352C10.5564 29.5486 9.89853 28.8963 9.89516 28.0387C9.89178 27.1645 10.5193 26.5222 11.3763 26.5188C12.2265 26.5154 12.864 27.1443 12.8708 27.9951Z" fill="#FA0000"/>
<path d="M15.5092 38.0869C15.5328 37.2227 16.1704 36.5905 17.0071 36.604C17.8539 36.6174 18.5051 37.29 18.4882 38.1374C18.4713 38.9983 17.7966 39.6607 16.97 39.6304C16.0996 39.6002 15.4856 38.9512 15.5092 38.0869Z" fill="#FB0000"/>
<path d="M38.906 52.7821C38.906 53.0175 38.8959 53.189 38.8487 53.3572C38.7171 53.8044 38.3999 54.0667 37.9478 54.1037C37.4283 54.1441 37.0471 53.949 36.8514 53.5186C36.649 53.0747 36.6524 52.6174 36.8413 52.1735C37.0403 51.7094 37.4924 51.4841 38.0018 51.5648C38.5113 51.6489 38.8352 51.9919 38.8925 52.5199C38.906 52.6241 38.906 52.735 38.906 52.7821Z" fill="#001E75"/>
<path d="M12.7898 52.3988C12.5537 52.3988 12.3141 52.3887 12.078 52.4022C11.9126 52.4122 11.879 52.3517 11.9059 52.197C11.9903 51.7262 12.358 51.437 12.8675 51.4538C13.3431 51.4673 13.6535 51.7699 13.7075 52.2542C13.7243 52.3988 13.6535 52.3988 13.5557 52.3988C13.3027 52.3988 13.0463 52.3988 12.7898 52.3988Z" fill="#012077"/>
<path d="M32.7522 52.3987C32.5161 52.3987 32.2799 52.3919 32.0437 52.402C31.8851 52.4088 31.8413 52.3617 31.8683 52.2003C31.9493 51.7362 32.3238 51.4336 32.8197 51.4504C33.3123 51.4672 33.6294 51.7765 33.6766 52.2608C33.6867 52.3819 33.6429 52.3987 33.5451 52.3953C33.2785 52.3987 33.0153 52.3987 32.7522 52.3987Z" fill="#012076"/>
<path d="M4.62206 59.9549C4.62881 59.437 4.9392 59.1075 5.42164 59.1142C5.92095 59.1209 6.22122 59.4538 6.2111 59.9919C6.20435 60.503 5.88047 60.8326 5.39465 60.8225C4.91895 60.8124 4.61532 60.4762 4.62206 59.9549Z" fill="#012077"/>
<path d="M36.5376 59.9853C36.5443 60.187 36.5241 60.3821 36.4532 60.5738C36.3959 60.7217 36.298 60.8193 36.1327 60.8226C35.9775 60.826 35.8662 60.7386 35.819 60.604C35.6671 60.1804 35.6637 59.7499 35.8223 59.3296C35.8729 59.1917 35.9775 59.111 36.1395 59.1177C36.298 59.1244 36.3891 59.2119 36.4464 59.3464C36.5308 59.5481 36.5443 59.7667 36.5376 59.9853Z" fill="#012076"/>
<path d="M20.7991 59.982C20.8126 60.1939 20.7856 60.399 20.7046 60.5941C20.6473 60.7319 20.5528 60.816 20.3976 60.8227C20.239 60.8261 20.1344 60.7453 20.0839 60.6075C19.9286 60.1838 19.932 59.7567 20.0805 59.3296C20.131 59.185 20.2424 59.1145 20.3942 59.1178C20.5494 59.1211 20.6473 59.2052 20.7046 59.3431C20.7889 59.5449 20.8092 59.7634 20.7991 59.982Z" fill="#012274"/>
<path d="M16.5786 59.9651C16.5853 60.1836 16.5684 60.3989 16.4774 60.604C16.42 60.7318 16.3323 60.8091 16.1906 60.8192C16.0354 60.8293 15.9173 60.752 15.8667 60.6174C15.7014 60.187 15.7048 59.7464 15.8667 59.316C15.9173 59.1815 16.032 59.1041 16.1872 59.1109C16.3323 59.1176 16.42 59.2017 16.4774 59.3228C16.5684 59.5313 16.5819 59.7464 16.5786 59.9651Z" fill="#011F73"/>
<path d="M30.6066 59.4539C30.5493 59.2219 30.637 59.1176 30.9306 59.1412C31.2949 59.1715 31.4332 59.242 31.4366 59.4976C31.4433 59.77 31.3118 59.8272 30.8597 59.8541C30.5257 59.8777 30.6134 59.6658 30.6066 59.4539Z" fill="#042270"/>
<path d="M41.551 67.0571L41.5578 68.0222L41.3418 68.0255H41.1462L41.1495 67.0571H40.7008V66.6434H41.1495H41.551L42.0065 66.6468V67.0571H41.551Z" fill="#05276B"/>
<path d="M18.1372 65.4263C18.2924 65.4263 18.4442 65.4229 18.5961 65.4296C18.6162 65.4296 18.6432 65.4566 18.6601 65.48C19.0278 65.9946 19.3923 66.5091 19.7566 67.0236C19.7769 67.0505 19.7937 67.0774 19.8274 67.1009C19.8274 66.5461 19.8274 65.9912 19.8274 65.433C20.0231 65.433 20.2087 65.433 20.401 65.433C20.401 66.3476 20.401 67.2623 20.401 68.1871C20.3031 68.1871 20.202 68.177 20.1041 68.1905C19.9624 68.2106 19.8814 68.1501 19.8039 68.0358C19.4631 67.5415 19.1122 67.0572 18.7647 66.5663C18.7512 66.5495 18.7377 66.5326 18.7141 66.5024C18.7141 67.0706 18.7141 67.6256 18.7141 68.1837C18.5184 68.1837 18.3295 68.1837 18.1372 68.1837C18.1372 67.2657 18.1372 66.351 18.1372 65.4263Z" fill="white"/>
<path d="M23.4409 66.5863C23.3869 66.0113 22.9618 65.5405 22.3882 65.4564C21.9091 65.3858 21.4234 65.4329 20.9375 65.4329V68.1869H21.0151C21.3592 68.1869 21.7033 68.1903 22.0475 68.1869C22.1622 68.1869 22.2769 68.1803 22.3882 68.1601C22.8302 68.076 23.1574 67.8406 23.3396 67.4203C23.4544 67.1513 23.4679 66.8721 23.4409 66.5863ZM22.8201 67.1916C22.7188 67.4942 22.5029 67.6624 22.1858 67.6859C21.9631 67.7027 21.7405 67.6893 21.511 67.6893V65.9306C21.5212 65.9272 21.5313 65.9204 21.5414 65.9204C21.7438 65.9204 21.9429 65.9104 22.1453 65.9238C22.5232 65.944 22.7627 66.1457 22.8471 66.5156C22.8976 66.7376 22.8943 66.9663 22.8201 67.1916Z" fill="white"/>
<path d="M27.523 68.0996C27.4151 67.8474 27.3037 67.5918 27.1958 67.3396C26.9292 66.7209 26.6594 66.1021 26.3928 65.4834C26.3726 65.4397 26.349 65.4228 26.3017 65.4262C26.1803 65.4295 26.0589 65.4295 25.9407 65.4262C25.8935 65.4262 25.8699 65.443 25.8531 65.4867C25.519 66.2669 25.1817 67.0504 24.8443 67.8306C24.7937 67.9483 24.7431 68.0626 24.6958 68.1803C24.7093 68.1837 24.7127 68.1871 24.7194 68.1871C24.9084 68.1871 25.1006 68.1904 25.2896 68.1871C25.3064 68.1871 25.3335 68.1635 25.3436 68.1433C25.4077 67.9987 25.4718 67.8541 25.5291 67.7062C25.546 67.6624 25.5696 67.6523 25.6135 67.6523C25.9542 67.6557 26.2983 67.6557 26.6391 67.6523C26.6829 67.6523 26.7032 67.6658 26.7167 67.7062C26.7774 67.8541 26.8382 67.9987 26.9022 68.1433C26.9123 68.1635 26.936 68.1871 26.9562 68.1871C27.1519 68.1904 27.3509 68.1904 27.5567 68.1904C27.5432 68.1467 27.5331 68.1232 27.523 68.0996ZM25.7653 67.1715C25.8867 66.889 26.0049 66.6099 26.1297 66.3173C26.2545 66.6099 26.3726 66.8857 26.494 67.1715H25.7653Z" fill="white"/>
<path d="M17.6076 68.1809C17.4153 68.1809 17.2298 68.1809 17.0375 68.1809C17.0375 67.2629 17.0375 66.3482 17.0375 65.4301C17.2264 65.4301 17.4153 65.4301 17.6076 65.4301C17.6076 66.3448 17.6076 67.2595 17.6076 68.1809Z" fill="white"/>
<path d="M23.866 65.4262C24.0583 65.4262 24.2438 65.4262 24.4361 65.4262C24.4361 66.3442 24.4361 67.2589 24.4361 68.1769C24.2472 68.1769 24.0583 68.1769 23.866 68.1769C23.866 67.2622 23.866 66.3509 23.866 65.4262Z" fill="white"/>
<path d="M31.8785 38.6215C31.1768 38.6215 30.6201 39.173 30.6201 39.8724C30.6201 40.5651 31.17 41.1099 31.865 41.1099C32.5836 41.1099 33.1335 40.5719 33.1335 39.869C33.1335 39.1662 32.587 38.6215 31.8785 38.6215ZM32.0303 40.888C31.4129 40.9754 30.8866 40.5719 30.8597 39.9296C30.8428 39.5966 30.9372 39.2974 31.1936 39.0788C31.5074 38.8097 31.8718 38.7661 32.253 38.8972C32.6174 39.025 32.8198 39.3008 32.8805 39.6773C32.8907 39.7412 32.894 39.8051 32.9007 39.8657C32.8973 40.4071 32.56 40.814 32.0303 40.888Z" fill="white"/>
<path d="M32.1113 39.9497C32.1349 39.9396 32.1551 39.9296 32.172 39.9194C32.2698 39.869 32.3339 39.7916 32.3508 39.6807C32.3879 39.4419 32.2732 39.2704 32.0336 39.2469C31.8413 39.2267 31.649 39.2435 31.4432 39.2435C31.4432 39.6235 31.4466 40.4138 31.4466 40.4675H31.7199C31.7199 40.4373 31.7199 39.9901 31.7199 39.9901H31.8447L32.1349 40.4642C32.1349 40.4642 32.3339 40.4675 32.4317 40.4675C32.3238 40.2927 32.2193 40.1246 32.1113 39.9497ZM31.9696 39.785C31.892 39.8018 31.811 39.7984 31.7267 39.8051V39.4419C31.8077 39.4453 31.8852 39.4453 31.9595 39.4587C32.0438 39.4722 32.0843 39.5226 32.0876 39.6101C32.091 39.7042 32.0539 39.7681 31.9696 39.785Z" fill="white"/>
</g>
<defs>
<clipPath id="clip0">
<rect width="44.25" height="75" fill="white"/>
</clipPath>
</defs>
</svg>
