<svg width="67" height="75" viewBox="0 0 67 75" fill="none" xmlns="http://www.w3.org/2000/svg">
<g clip-path="url(#clip0)">
<path d="M5.5 58.0001L33.7143 72.3571L60.8572 58.0001V1.85721H5.5V58.0001Z" fill="white"/>
<path d="M61.4286 2.07135L4.92859 58.9999L34.2143 73.5L61.4286 59.5714V2.07135Z" fill="#F2F3F2"/>
<path d="M3.64282 20.5714V59.2143L4.64282 59.7143L32.8571 74.0714L33.7143 74.5L34.5714 74.0714L61.7857 59.7143L62.7857 59.2143V0H3.64282V20.5714ZM5.49997 58.1429V1.85714H60.9286V58.1429L33.7143 72.5L5.49997 58.1429Z" fill="#DCDEDC"/>
<path d="M33.2143 2.78571C33.5 2.78571 33.7857 2.78571 34.0715 2.85714L33.2143 4.5C31.9286 4.42857 30.7857 5.42857 30.7143 6.71429C30.6429 8 31.6429 9.14286 32.9286 9.21429H33.2143C33.7857 9.21429 34.3572 9 34.7857 8.64286L35.7143 10.2143C35 10.7143 34.1429 11 33.2143 11C30.9286 11.0714 29 9.35714 28.9286 7.07143C28.8572 4.78571 30.5715 2.85714 32.8572 2.78571H33.2143ZM36.1429 6.28571L37.2143 8.07143L36.1429 9.78571L35.1429 8.07143H33.0715L34.1429 6.28571H36.1429ZM34.4286 5.64286C34.4286 5.35714 34.5 5.07143 34.6429 4.85714C34.7857 4.64286 35.0715 4.42857 35.2857 4.28571L35.4286 4.21429C35.7143 4.07143 35.7857 4 35.7857 3.85714C35.7857 3.71429 35.5715 3.57143 35.4286 3.57143C35.1429 3.57143 34.9286 3.71429 34.7857 4L34.4286 3.64286C34.5 3.5 34.6429 3.35714 34.7857 3.21429C35 3.07143 35.2143 3.07143 35.4286 3.07143C35.6429 3.07143 35.9286 3.14286 36.0715 3.28571C36.2143 3.42857 36.3572 3.64286 36.3572 3.85714C36.3572 4.21429 36.1429 4.5 35.7143 4.64286L35.5 4.78571C35.2857 4.92857 35.1429 5 35.0715 5.21429H36.3572V5.71429L34.4286 5.64286ZM33.2143 14.5714L40 10.7143V0H26.3572V10.6429L33.2143 14.5714Z" fill="#FF492C"/>
<path d="M64.1429 39.8572H2.28571L0 44.8572L2.28571 49.8572H64.1429L66.3571 44.8572L64.1429 39.8572Z" fill="#FF492C"/>
<path d="M13.3214 36.6428C13.2785 36.6428 13.2428 36.6285 13.2142 36.5999C13.1857 36.5666 13.1714 36.5285 13.1714 36.4857V27.7999C13.1714 27.7571 13.1857 27.7189 13.2142 27.6856C13.2428 27.6571 13.2785 27.6428 13.3214 27.6428H14.8285C14.8714 27.6428 14.9071 27.6571 14.9357 27.6856C14.969 27.7189 14.9857 27.7571 14.9857 27.7999V35.0214C14.9857 35.0642 15.0071 35.0856 15.05 35.0856H19.25C19.2928 35.0856 19.331 35.0999 19.3642 35.1285C19.3928 35.1618 19.4071 35.1999 19.4071 35.2428V36.4857C19.4071 36.5285 19.3928 36.5666 19.3642 36.5999C19.331 36.6285 19.2928 36.6428 19.25 36.6428H13.3214ZM26.2571 32.6571C26.3095 32.9809 26.3262 33.3451 26.3071 33.7499C26.3024 33.8546 26.2476 33.9071 26.1428 33.9071H22.1714C22.119 33.9071 22.1024 33.9285 22.1214 33.9714C22.1452 34.1428 22.1905 34.3142 22.2571 34.4856C22.481 34.9618 22.9357 35.1999 23.6214 35.1999C24.169 35.1951 24.6024 34.9737 24.9214 34.5356C24.9547 34.4832 24.9928 34.4571 25.0357 34.4571C25.0642 34.4571 25.0952 34.4737 25.1285 34.5071L26.05 35.4214C26.0928 35.4642 26.1142 35.5023 26.1142 35.5356C26.1142 35.5546 26.0976 35.5904 26.0642 35.6428C25.7833 35.9904 25.419 36.2618 24.9714 36.4571C24.5285 36.6475 24.0405 36.7428 23.5071 36.7428C22.769 36.7428 22.1452 36.5761 21.6357 36.2428C21.1262 35.9094 20.7595 35.4428 20.5357 34.8428C20.3547 34.4142 20.2642 33.8523 20.2642 33.1571C20.2642 32.6856 20.3285 32.2714 20.4571 31.9142C20.6571 31.3046 21.0024 30.8189 21.4928 30.4571C21.9881 30.0999 22.5738 29.9214 23.25 29.9214C24.1071 29.9214 24.7952 30.1689 25.3142 30.6642C25.8333 31.1594 26.1476 31.8237 26.2571 32.6571ZM23.2642 31.4857C22.7214 31.4857 22.3642 31.738 22.1928 32.2428C22.1595 32.3571 22.131 32.4952 22.1071 32.6571C22.1071 32.6999 22.1285 32.7214 22.1714 32.7214H24.3928C24.4452 32.7214 24.4619 32.6999 24.4428 32.6571C24.4 32.4094 24.3785 32.2904 24.3785 32.2999C24.3024 32.0428 24.169 31.8428 23.9785 31.6999C23.7833 31.5571 23.5452 31.4857 23.2642 31.4857ZM30.0642 29.9285C30.6214 29.9285 31.119 30.0261 31.5571 30.2214C31.9952 30.4118 32.3357 30.6761 32.5785 31.0142C32.8214 31.3475 32.9428 31.7189 32.9428 32.1285V36.4857C32.9428 36.5285 32.9285 36.5666 32.9 36.5999C32.8714 36.6285 32.8357 36.6428 32.7928 36.6428H31.2857C31.2428 36.6428 31.2071 36.6285 31.1785 36.5999C31.1452 36.5666 31.1285 36.5285 31.1285 36.4857V36.0642C31.1285 36.0404 31.1214 36.0237 31.1071 36.0142C31.0881 36.0046 31.0714 36.0118 31.0571 36.0357C30.6952 36.5071 30.1167 36.7428 29.3214 36.7428C28.65 36.7428 28.1095 36.5809 27.7 36.2571C27.2857 35.9332 27.0785 35.4523 27.0785 34.8142C27.0785 34.1571 27.3119 33.6451 27.7785 33.2785C28.2405 32.9166 28.9 32.7357 29.7571 32.7357H31.0642C31.1071 32.7357 31.1285 32.7142 31.1285 32.6714V32.3856C31.1285 32.1046 31.0428 31.8832 30.8714 31.7214C30.7 31.5642 30.4428 31.4857 30.1 31.4857C29.8381 31.4857 29.619 31.5332 29.4428 31.6285C29.2667 31.7237 29.1524 31.8571 29.1 32.0285C29.0762 32.1237 29.0214 32.1666 28.9357 32.1571L27.3785 31.9499C27.2738 31.9309 27.2262 31.8928 27.2357 31.8356C27.269 31.4737 27.4119 31.1475 27.6642 30.8571C27.9167 30.5666 28.2524 30.3404 28.6714 30.1785C29.0857 30.0118 29.55 29.9285 30.0642 29.9285ZM29.8071 35.3928C30.1738 35.3928 30.4857 35.2951 30.7428 35.0999C31 34.9046 31.1285 34.6523 31.1285 34.3428V33.8785C31.1285 33.8356 31.1071 33.8142 31.0642 33.8142H30.1428C29.7571 33.8142 29.4547 33.888 29.2357 34.0357C29.0167 34.1785 28.9071 34.3832 28.9071 34.6499C28.9071 34.8832 28.9881 35.0642 29.15 35.1928C29.3119 35.3261 29.531 35.3928 29.8071 35.3928ZM38.3214 27.7999C38.3214 27.7571 38.3357 27.7189 38.3642 27.6856C38.3928 27.6571 38.4285 27.6428 38.4714 27.6428H39.9785C40.0214 27.6428 40.0571 27.6571 40.0857 27.6856C40.1142 27.7189 40.1285 27.7571 40.1285 27.7999V36.4857C40.1285 36.5285 40.1142 36.5666 40.0857 36.5999C40.0571 36.6285 40.0214 36.6428 39.9785 36.6428H38.4714C38.4285 36.6428 38.3928 36.6285 38.3642 36.5999C38.3357 36.5666 38.3214 36.5285 38.3214 36.4857V36.0642C38.3214 36.0404 38.3119 36.0261 38.2928 36.0214C38.2738 36.0166 38.2571 36.0214 38.2428 36.0357C37.881 36.5071 37.3881 36.7428 36.7642 36.7428C36.1642 36.7428 35.6476 36.5761 35.2142 36.2428C34.781 35.9094 34.469 35.4523 34.2785 34.8714C34.1357 34.4237 34.0642 33.9046 34.0642 33.3142C34.0642 32.7046 34.1405 32.1737 34.2928 31.7214C34.4928 31.1689 34.8047 30.7332 35.2285 30.4142C35.6524 30.0904 36.1762 29.9285 36.8 29.9285C37.419 29.9285 37.9 30.1428 38.2428 30.5714C38.2571 30.5999 38.2738 30.6094 38.2928 30.5999C38.3119 30.5904 38.3214 30.5737 38.3214 30.5499V27.7999ZM38.05 34.6357C38.2214 34.3214 38.3071 33.888 38.3071 33.3356C38.3071 32.7642 38.2119 32.3142 38.0214 31.9856C37.8262 31.6523 37.5405 31.4857 37.1642 31.4857C36.7595 31.4857 36.4547 31.6523 36.25 31.9856C36.0357 32.3237 35.9285 32.7785 35.9285 33.3499C35.9285 33.8642 36.019 34.2928 36.2 34.6357C36.4142 35.0071 36.731 35.1928 37.15 35.1928C37.5357 35.1928 37.8357 35.0071 38.05 34.6357ZM47.3428 32.6571C47.3952 32.9809 47.4119 33.3451 47.3928 33.7499C47.3881 33.8546 47.3333 33.9071 47.2285 33.9071H43.2571C43.2047 33.9071 43.1881 33.9285 43.2071 33.9714C43.231 34.1428 43.2762 34.3142 43.3428 34.4856C43.5667 34.9618 44.0214 35.1999 44.7071 35.1999C45.2547 35.1951 45.6881 34.9737 46.0071 34.5356C46.0405 34.4832 46.0785 34.4571 46.1214 34.4571C46.15 34.4571 46.181 34.4737 46.2142 34.5071L47.1357 35.4214C47.1785 35.4642 47.2 35.5023 47.2 35.5356C47.2 35.5546 47.1833 35.5904 47.15 35.6428C46.869 35.9904 46.5047 36.2618 46.0571 36.4571C45.6142 36.6475 45.1262 36.7428 44.5928 36.7428C43.8547 36.7428 43.231 36.5761 42.7214 36.2428C42.2119 35.9094 41.8452 35.4428 41.6214 34.8428C41.4405 34.4142 41.35 33.8523 41.35 33.1571C41.35 32.6856 41.4142 32.2714 41.5428 31.9142C41.7428 31.3046 42.0881 30.8189 42.5785 30.4571C43.0738 30.0999 43.6595 29.9214 44.3357 29.9214C45.1928 29.9214 45.881 30.1689 46.4 30.6642C46.919 31.1594 47.2333 31.8237 47.3428 32.6571ZM44.35 31.4857C43.8071 31.4857 43.45 31.738 43.2785 32.2428C43.2452 32.3571 43.2167 32.4952 43.1928 32.6571C43.1928 32.6999 43.2142 32.7214 43.2571 32.7214H45.4785C45.531 32.7214 45.5476 32.6999 45.5285 32.6571C45.4857 32.4094 45.4642 32.2904 45.4642 32.2999C45.3881 32.0428 45.2547 31.8428 45.0642 31.6999C44.869 31.5571 44.631 31.4857 44.35 31.4857ZM51.8071 29.9428C52.1167 29.9428 52.3595 30.0023 52.5357 30.1214C52.6071 30.1594 52.6333 30.2237 52.6142 30.3142L52.3428 31.7856C52.3381 31.8856 52.2785 31.9142 52.1642 31.8714C52.0357 31.8285 51.8857 31.8071 51.7142 31.8071C51.6476 31.8071 51.5547 31.8166 51.4357 31.8356C51.1262 31.8594 50.8642 31.9714 50.65 32.1714C50.4357 32.3761 50.3285 32.6451 50.3285 32.9785V36.4857C50.3285 36.5285 50.3142 36.5666 50.2857 36.5999C50.2524 36.6285 50.2142 36.6428 50.1714 36.6428H48.6714C48.6285 36.6428 48.5905 36.6285 48.5571 36.5999C48.5285 36.5666 48.5142 36.5285 48.5142 36.4857V30.1856C48.5142 30.1428 48.5285 30.1071 48.5571 30.0785C48.5905 30.0499 48.6285 30.0356 48.6714 30.0356H50.1714C50.2142 30.0356 50.2524 30.0499 50.2857 30.0785C50.3142 30.1071 50.3285 30.1428 50.3285 30.1856V30.6785C50.3285 30.7023 50.3357 30.7189 50.35 30.7285C50.369 30.738 50.3833 30.7332 50.3928 30.7142C50.7452 30.1999 51.2167 29.9428 51.8071 29.9428Z" fill="#252530"/>
<path d="M23.3858 47.7001C23.0143 47.7001 22.6905 47.6406 22.4143 47.5215C22.1382 47.4025 21.9239 47.2358 21.7715 47.0215C21.6239 46.8072 21.55 46.5549 21.55 46.2644V46.0858C21.55 46.062 21.5596 46.0406 21.5786 46.0215C21.5929 46.0072 21.612 46.0001 21.6358 46.0001H22.2715C22.2953 46.0001 22.3168 46.0072 22.3358 46.0215C22.35 46.0406 22.3572 46.062 22.3572 46.0858V46.2215C22.3572 46.4406 22.4548 46.6215 22.65 46.7644C22.8453 46.912 23.112 46.9858 23.4501 46.9858C23.7406 46.9858 23.9596 46.9239 24.1072 46.8001C24.2548 46.6763 24.3286 46.5168 24.3286 46.3215C24.3286 46.1882 24.2882 46.0739 24.2072 45.9786C24.1263 45.8882 24.012 45.8049 23.8643 45.7286C23.712 45.6525 23.4858 45.5572 23.1858 45.4429C22.8477 45.3191 22.5739 45.2025 22.3643 45.0929C22.1548 44.9834 21.981 44.8334 21.8429 44.6429C21.7 44.4572 21.6286 44.2239 21.6286 43.9429C21.6286 43.5239 21.781 43.1929 22.0858 42.9501C22.3905 42.7072 22.7977 42.5858 23.3072 42.5858C23.6643 42.5858 23.981 42.6477 24.2572 42.7715C24.5286 42.8954 24.7405 43.0691 24.8929 43.2929C25.0453 43.512 25.1215 43.7668 25.1215 44.0572V44.1786C25.1215 44.2025 25.112 44.2239 25.0929 44.2429C25.0786 44.2572 25.0596 44.2644 25.0358 44.2644H24.3929C24.3691 44.2644 24.35 44.2572 24.3358 44.2429C24.3168 44.2239 24.3072 44.2025 24.3072 44.1786V44.1001C24.3072 43.8763 24.2168 43.6882 24.0358 43.5358C23.8501 43.3786 23.5953 43.3001 23.2715 43.3001C23.0096 43.3001 22.8072 43.3549 22.6643 43.4644C22.5168 43.5739 22.4429 43.7286 22.4429 43.9286C22.4429 44.0715 22.481 44.1882 22.5572 44.2786C22.6334 44.3691 22.7477 44.4501 22.9 44.5215C23.0525 44.5977 23.2882 44.6929 23.6072 44.8072C23.9453 44.9358 24.2168 45.0525 24.4215 45.1572C24.6215 45.262 24.7953 45.4072 24.9429 45.5929C25.0858 45.7834 25.1572 46.0191 25.1572 46.3001C25.1572 46.7286 24.9977 47.0691 24.6786 47.3215C24.3643 47.5739 23.9334 47.7001 23.3858 47.7001ZM28.0001 42.6358C28.3001 42.6358 28.5643 42.6977 28.7929 42.8215C29.0215 42.9454 29.1977 43.1191 29.3215 43.3429C29.45 43.5715 29.5143 43.8334 29.5143 44.1286C29.5143 44.4191 29.45 44.6763 29.3215 44.9001C29.1929 45.1239 29.012 45.2954 28.7786 45.4144C28.5406 45.5382 28.2668 45.6001 27.9572 45.6001H26.8143C26.7905 45.6001 26.7786 45.612 26.7786 45.6358V47.5572C26.7786 47.5811 26.7715 47.6001 26.7572 47.6144C26.7382 47.6334 26.7168 47.6429 26.6929 47.6429H26.0358C26.012 47.6429 25.9929 47.6334 25.9786 47.6144C25.9596 47.6001 25.9501 47.5811 25.9501 47.5572V42.7215C25.9501 42.6977 25.9596 42.6763 25.9786 42.6572C25.9929 42.6429 26.012 42.6358 26.0358 42.6358H28.0001ZM27.8786 44.9286C28.1215 44.9286 28.3168 44.8572 28.4643 44.7144C28.612 44.5715 28.6858 44.3834 28.6858 44.1501C28.6858 43.912 28.612 43.7191 28.4643 43.5715C28.3168 43.4239 28.1215 43.3501 27.8786 43.3501H26.8143C26.7905 43.3501 26.7786 43.362 26.7786 43.3858V44.8929C26.7786 44.9168 26.7905 44.9286 26.8143 44.9286H27.8786ZM33.0501 47.6429C33.0025 47.6429 32.9691 47.6215 32.9501 47.5786L32.0072 45.5215C31.9977 45.5025 31.9834 45.4929 31.9643 45.4929H31.1072C31.0834 45.4929 31.0715 45.5049 31.0715 45.5286V47.5572C31.0715 47.5811 31.062 47.6001 31.0429 47.6144C31.0286 47.6334 31.0096 47.6429 30.9858 47.6429H30.3286C30.3048 47.6429 30.2858 47.6334 30.2715 47.6144C30.2525 47.6001 30.2429 47.5811 30.2429 47.5572V42.7286C30.2429 42.7049 30.2525 42.6858 30.2715 42.6715C30.2858 42.6525 30.3048 42.6429 30.3286 42.6429H32.2929C32.5834 42.6429 32.8406 42.7025 33.0643 42.8215C33.2882 42.9454 33.462 43.1168 33.5858 43.3358C33.7096 43.5596 33.7715 43.8144 33.7715 44.1001C33.7715 44.4286 33.6882 44.7072 33.5215 44.9358C33.35 45.1691 33.1143 45.3311 32.8143 45.4215C32.8048 45.4215 32.7977 45.4263 32.7929 45.4358C32.7882 45.4454 32.7882 45.4549 32.7929 45.4644L33.8 47.5429C33.8096 47.562 33.8143 47.5763 33.8143 47.5858C33.8143 47.6239 33.7882 47.6429 33.7358 47.6429H33.0501ZM31.1072 43.3572C31.0834 43.3572 31.0715 43.3691 31.0715 43.3929V44.8144C31.0715 44.8382 31.0834 44.8501 31.1072 44.8501H32.1786C32.4072 44.8501 32.5905 44.7811 32.7286 44.6429C32.8715 44.5096 32.9429 44.3311 32.9429 44.1072C32.9429 43.8834 32.8715 43.7025 32.7286 43.5644C32.5905 43.4263 32.4072 43.3572 32.1786 43.3572H31.1072ZM34.7072 47.6429C34.6834 47.6429 34.662 47.6334 34.6429 47.6144C34.6286 47.6001 34.6215 47.5811 34.6215 47.5572V42.7286C34.6215 42.7049 34.6286 42.6858 34.6429 42.6715C34.662 42.6525 34.6834 42.6429 34.7072 42.6429H35.3643C35.3882 42.6429 35.4072 42.6525 35.4215 42.6715C35.4406 42.6858 35.4501 42.7049 35.4501 42.7286V47.5572C35.4501 47.5811 35.4406 47.6001 35.4215 47.6144C35.4072 47.6334 35.3882 47.6429 35.3643 47.6429H34.7072ZM39.4001 42.7286C39.4001 42.7049 39.4096 42.6858 39.4286 42.6715C39.4429 42.6525 39.462 42.6429 39.4858 42.6429H40.1429C40.1668 42.6429 40.1882 42.6525 40.2072 42.6715C40.2215 42.6858 40.2286 42.7049 40.2286 42.7286V47.5572C40.2286 47.5811 40.2215 47.6001 40.2072 47.6144C40.1882 47.6334 40.1668 47.6429 40.1429 47.6429H39.5072C39.4596 47.6429 39.4263 47.6239 39.4072 47.5858L37.3501 44.2144C37.3406 44.2001 37.3311 44.1929 37.3215 44.1929C37.312 44.1977 37.3072 44.2096 37.3072 44.2286L37.3215 47.5572C37.3215 47.5811 37.312 47.6001 37.2929 47.6144C37.2786 47.6334 37.2596 47.6429 37.2358 47.6429H36.5786C36.5548 47.6429 36.5358 47.6334 36.5215 47.6144C36.5025 47.6001 36.4929 47.5811 36.4929 47.5572V42.7286C36.4929 42.7049 36.5025 42.6858 36.5215 42.6715C36.5358 42.6525 36.5548 42.6429 36.5786 42.6429H37.2143C37.262 42.6429 37.2953 42.662 37.3143 42.7001L39.3643 46.0715C39.3739 46.0858 39.3834 46.0906 39.3929 46.0858C39.4025 46.0858 39.4072 46.0763 39.4072 46.0572L39.4001 42.7286ZM42.9429 47.7001C42.5858 47.7001 42.2715 47.6311 42 47.4929C41.7286 47.3501 41.5191 47.1501 41.3715 46.8929C41.2239 46.6358 41.1501 46.3406 41.1501 46.0072V44.2786C41.1501 43.9406 41.2239 43.6429 41.3715 43.3858C41.5191 43.1334 41.7286 42.9358 42 42.7929C42.2715 42.6549 42.5858 42.5858 42.9429 42.5858C43.2953 42.5858 43.6072 42.6549 43.8786 42.7929C44.1453 42.9311 44.3525 43.1191 44.5 43.3572C44.6477 43.5954 44.7215 43.8644 44.7215 44.1644V44.2215C44.7215 44.2454 44.7143 44.2644 44.7001 44.2786C44.6811 44.2977 44.6596 44.3072 44.6358 44.3072H43.9858C43.962 44.3072 43.9429 44.2977 43.9286 44.2786C43.9096 44.2644 43.9001 44.2454 43.9001 44.2215V44.1858C43.9001 43.9286 43.812 43.7168 43.6358 43.5501C43.4643 43.3834 43.2334 43.3001 42.9429 43.3001C42.6525 43.3001 42.4191 43.3882 42.2429 43.5644C42.0668 43.7358 41.9786 43.9644 41.9786 44.2501V46.0358C41.9786 46.3215 42.0715 46.5525 42.2572 46.7286C42.4429 46.9001 42.6834 46.9858 42.9786 46.9858C43.2643 46.9858 43.4906 46.9096 43.6572 46.7572C43.8191 46.6096 43.9001 46.4049 43.9001 46.1429V45.7001C43.9001 45.6763 43.8882 45.6644 43.8643 45.6644H42.9858C42.962 45.6644 42.9406 45.6549 42.9215 45.6358C42.9072 45.6215 42.9001 45.6025 42.9001 45.5786V45.0501C42.9001 45.0263 42.9072 45.0072 42.9215 44.9929C42.9406 44.9739 42.962 44.9644 42.9858 44.9644H44.6358C44.6596 44.9644 44.6811 44.9739 44.7001 44.9929C44.7143 45.0072 44.7215 45.0263 44.7215 45.0501V45.9644C44.7215 46.512 44.562 46.9382 44.2429 47.2429C43.9191 47.5477 43.4858 47.7001 42.9429 47.7001Z" fill="white"/>
<path d="M25.0143 60.5429C25.0001 60.5572 24.9953 60.5715 25.0001 60.5858C25.0096 60.6001 25.0238 60.6072 25.0429 60.6072H27.8501C27.8833 60.6072 27.9119 60.6191 27.9358 60.6429C27.9643 60.6667 27.9786 60.6953 27.9786 60.7287V61.7358C27.9786 61.7691 27.9643 61.7977 27.9358 61.8215C27.9119 61.8453 27.8833 61.8572 27.8501 61.8572H23.1929C23.1548 61.8572 23.1238 61.8453 23.1001 61.8215C23.0762 61.7977 23.0643 61.7691 23.0643 61.7358V60.7787C23.0643 60.7167 23.0858 60.6644 23.1286 60.6215C23.4667 60.2929 23.8119 59.9334 24.1643 59.5429C24.5167 59.1524 24.7381 58.9096 24.8286 58.8144C25.0191 58.5858 25.2143 58.3667 25.4143 58.1572C26.0429 57.4619 26.3572 56.9453 26.3572 56.6072C26.3572 56.3644 26.2715 56.1644 26.1001 56.0072C25.9286 55.8548 25.7048 55.7787 25.4286 55.7787C25.1524 55.7787 24.9286 55.8548 24.7572 56.0072C24.581 56.1644 24.4929 56.3715 24.4929 56.6287V56.8858C24.4929 56.9191 24.481 56.9477 24.4572 56.9715C24.4333 56.9953 24.4048 57.0072 24.3715 57.0072H23.1501C23.1167 57.0072 23.0881 56.9953 23.0643 56.9715C23.0358 56.9477 23.0215 56.9191 23.0215 56.8858V56.4001C23.0453 56.0287 23.1643 55.6977 23.3786 55.4072C23.5929 55.1215 23.8762 54.9024 24.2286 54.7501C24.5858 54.5977 24.9858 54.5215 25.4286 54.5215C25.9191 54.5215 26.3453 54.6144 26.7072 54.8001C27.0691 54.981 27.3476 55.2262 27.5429 55.5358C27.7429 55.8501 27.8429 56.1953 27.8429 56.5715C27.8429 56.8619 27.7691 57.1596 27.6215 57.4644C27.4786 57.7691 27.2619 58.0977 26.9715 58.4501C26.7572 58.7167 26.5262 58.9834 26.2786 59.2501C26.031 59.5119 25.6619 59.8905 25.1715 60.3858L25.0143 60.5429ZM31.3429 61.9715C30.581 61.9715 29.981 61.7596 29.5429 61.3358C29.1001 60.9119 28.8786 60.3334 28.8786 59.6001V56.8644C28.8786 56.1453 29.1001 55.5762 29.5429 55.1572C29.981 54.7334 30.581 54.5215 31.3429 54.5215C32.1001 54.5215 32.7024 54.7334 33.1501 55.1572C33.5929 55.5762 33.8143 56.1453 33.8143 56.8644V59.6001C33.8143 60.3334 33.5929 60.9119 33.1501 61.3358C32.7024 61.7596 32.1001 61.9715 31.3429 61.9715ZM31.3429 60.7215C31.6524 60.7215 31.8976 60.6262 32.0786 60.4358C32.2643 60.2453 32.3572 59.9905 32.3572 59.6715V56.8215C32.3572 56.5072 32.2643 56.2548 32.0786 56.0644C31.8976 55.8739 31.6524 55.7787 31.3429 55.7787C31.0381 55.7787 30.7953 55.8739 30.6143 56.0644C30.4286 56.2548 30.3358 56.5072 30.3358 56.8215V59.6715C30.3358 59.9905 30.4286 60.2453 30.6143 60.4358C30.7953 60.6262 31.0381 60.7215 31.3429 60.7215ZM36.7143 60.5429C36.7001 60.5572 36.6976 60.5715 36.7072 60.5858C36.7119 60.6001 36.7262 60.6072 36.7501 60.6072H39.5572C39.5905 60.6072 39.6191 60.6191 39.6429 60.6429C39.6667 60.6667 39.6786 60.6953 39.6786 60.7287V61.7358C39.6786 61.7691 39.6667 61.7977 39.6429 61.8215C39.6191 61.8453 39.5905 61.8572 39.5572 61.8572H34.8929C34.8596 61.8572 34.831 61.8453 34.8072 61.8215C34.7833 61.7977 34.7715 61.7691 34.7715 61.7358V60.7787C34.7715 60.7167 34.7905 60.6644 34.8286 60.6215C35.1715 60.2929 35.5167 59.9334 35.8643 59.5429C36.2167 59.1524 36.4381 58.9096 36.5286 58.8144C36.7238 58.5858 36.9215 58.3667 37.1215 58.1572C37.7501 57.4619 38.0643 56.9453 38.0643 56.6072C38.0643 56.3644 37.9786 56.1644 37.8072 56.0072C37.631 55.8548 37.4048 55.7787 37.1286 55.7787C36.8524 55.7787 36.6286 55.8548 36.4572 56.0072C36.2858 56.1644 36.2001 56.3715 36.2001 56.6287V56.8858C36.2001 56.9191 36.1881 56.9477 36.1643 56.9715C36.1405 56.9953 36.1096 57.0072 36.0715 57.0072H34.8501C34.8167 57.0072 34.7881 56.9953 34.7643 56.9715C34.7405 56.9477 34.7286 56.9191 34.7286 56.8858V56.4001C34.7476 56.0287 34.8643 55.6977 35.0786 55.4072C35.2929 55.1215 35.5786 54.9024 35.9358 54.7501C36.2929 54.5977 36.6905 54.5215 37.1286 54.5215C37.6191 54.5215 38.0453 54.6144 38.4072 54.8001C38.7738 54.981 39.0548 55.2262 39.2501 55.5358C39.4453 55.8501 39.5429 56.1953 39.5429 56.5715C39.5429 56.8619 39.4715 57.1596 39.3286 57.4644C39.181 57.7691 38.9619 58.0977 38.6715 58.4501C38.4572 58.7167 38.2262 58.9834 37.9786 59.2501C37.731 59.5119 37.3619 59.8905 36.8715 60.3858L36.7143 60.5429ZM41.5929 54.6358C41.631 54.6167 41.6833 54.6072 41.7501 54.6072H43.0072C43.0405 54.6072 43.0691 54.6191 43.0929 54.6429C43.1167 54.6667 43.1286 54.6953 43.1286 54.7287V61.7358C43.1286 61.7691 43.1167 61.7977 43.0929 61.8215C43.0691 61.8453 43.0405 61.8572 43.0072 61.8572H41.7929C41.7596 61.8572 41.731 61.8453 41.7072 61.8215C41.6786 61.7977 41.6643 61.7691 41.6643 61.7358V56.0572C41.6643 56.0429 41.6596 56.0287 41.6501 56.0144C41.6358 56.0001 41.6215 55.9977 41.6072 56.0072L40.5786 56.2858L40.5358 56.2929C40.4738 56.2929 40.4429 56.2548 40.4429 56.1787L40.4143 55.2929C40.4143 55.2215 40.4453 55.1715 40.5072 55.1429L41.5929 54.6358Z" fill="#252530"/>
</g>
<defs>
<clipPath id="clip0">
<rect width="66.4286" height="75" fill="white"/>
</clipPath>
</defs>
</svg>
