<svg width="87" height="75" viewBox="0 0 87 75" fill="none" xmlns="http://www.w3.org/2000/svg">
<g clip-path="url(#clip0)">
<path d="M-9.21187e-05 17.1504C0.127968 17.1472 0.255388 17.1408 0.38345 17.1408C7.90445 17.1402 15.4254 17.1434 22.9464 17.1312C23.2839 17.1306 23.3402 17.2291 23.3383 17.5368C23.3255 19.8182 23.3242 22.0989 23.3389 24.3802C23.3408 24.6975 23.2486 24.7692 22.9464 24.7589C22.2645 24.7352 21.5806 24.7417 20.8987 24.757C20.6669 24.7621 20.617 24.6841 20.6183 24.4672C20.6272 23.0067 20.6176 21.5468 20.6279 20.0862C20.6298 19.8476 20.5831 19.7651 20.3205 19.7664C18.027 19.7779 15.7334 19.7779 13.4399 19.767C13.1831 19.7657 13.1274 19.8393 13.1274 20.0856C13.1338 29.1462 13.1338 38.207 13.1267 47.267C13.1267 47.5249 13.1773 47.6094 13.4527 47.6048C14.5834 47.5875 15.7142 47.6042 16.845 47.5927C17.0704 47.5901 17.1318 47.6541 17.1261 47.8763C17.1113 48.5051 17.1152 49.1339 17.1241 49.7628C17.1267 49.9515 17.0812 50.0224 16.8757 50.0224C13.3982 50.0166 9.9201 50.0175 6.44198 50.0218C6.26654 50.0218 6.2006 49.9823 6.2038 49.7942C6.21467 49.1334 6.21597 48.4725 6.20316 47.8116C6.19933 47.6094 6.28575 47.5947 6.44838 47.5953C7.6003 47.6011 8.75285 47.5895 9.90473 47.6048C10.1654 47.6089 10.2159 47.5269 10.2159 47.2843C10.2102 38.2238 10.2095 29.1629 10.2172 20.1028C10.2172 19.8418 10.1615 19.7657 9.88872 19.767C7.59516 19.7791 5.30161 19.7779 3.00805 19.7683C2.75833 19.767 2.68918 19.829 2.69174 20.0824C2.70454 21.5321 2.69046 22.9817 2.70454 24.4314C2.70711 24.7033 2.62579 24.764 2.36582 24.7596C1.57761 24.7449 0.788121 24.7602 -0.000732422 24.7634C-9.21187e-05 22.2249 -9.21187e-05 19.6877 -9.21187e-05 17.1504Z" fill="#C23E00"/>
<path d="M37.678 35.3761C37.6785 35.728 37.6733 36.0794 37.6759 36.4305C37.6771 36.588 37.6214 36.6537 37.4512 36.6531C36.2149 36.6468 34.9782 36.648 33.7413 36.6517C33.5959 36.6526 33.5466 36.6096 33.5287 36.4561C33.4814 36.0448 33.6049 35.7402 33.9251 35.4569C34.5704 34.886 35.1839 34.2777 35.7998 33.6739C36.1682 33.313 36.4817 32.9112 36.5882 32.3865C36.6776 31.9426 36.5175 31.5197 36.1705 31.2938C35.7767 31.0374 35.1871 31.0504 34.8124 31.3232C34.4527 31.5857 34.3157 31.9881 34.4847 32.4604C34.5782 32.7194 34.4847 32.75 34.2689 32.7915C33.6453 32.9132 33.6291 32.9106 33.5299 32.2772C33.3608 31.1998 34.153 30.335 35.3645 30.2729C35.6538 30.2582 35.9408 30.2825 36.2198 30.3534C37.3866 30.6497 37.9217 31.8269 37.4045 32.9528C37.0855 33.6477 36.5368 34.1568 35.9913 34.6659C35.5956 35.0357 35.196 35.4018 34.7345 35.8279C35.4245 35.8279 36.0297 35.8215 36.6349 35.8316C36.8238 35.8348 36.8276 35.739 36.8397 35.5956C36.8512 35.4612 36.7384 35.2475 36.9262 35.2059C37.1483 35.1566 37.3915 35.1912 37.624 35.21C37.6912 35.2149 37.678 35.3147 37.678 35.3761Z" fill="#C23E00"/>
<path d="M42.3732 31.5083C42.0196 30.7765 41.4709 30.2956 40.6188 30.2757C39.7422 30.2558 39.1549 30.707 38.7747 31.4656C38.5269 31.9589 38.4205 32.4879 38.3835 33.0343C38.3232 33.9268 38.3879 34.8043 38.8015 35.6163C39.1684 36.3366 39.748 36.7563 40.5848 36.7473C41.4075 36.7384 41.9613 36.3118 42.3282 35.6042C42.6657 34.9528 42.7413 34.2473 42.7624 33.5146C42.7445 32.8347 42.6804 32.1455 42.3732 31.5083ZM41.4799 35.2171C41.2941 35.6163 41.0293 35.9111 40.5392 35.9027C40.0624 35.8947 39.7857 35.5996 39.643 35.2049C39.2388 34.088 39.2408 32.9544 39.6357 31.834C39.7826 31.4189 40.0803 31.1143 40.5533 31.1111C41.0247 31.1085 41.3071 31.4094 41.4877 31.8161C41.7303 32.3639 41.7649 32.946 41.7643 33.5339C41.7611 34.1102 41.7291 34.6828 41.4799 35.2171Z" fill="#C23E00"/>
<path d="M43.3792 32.3164C43.2505 31.6229 43.5142 30.9667 44.1182 30.6165C44.9242 30.1489 45.7676 30.1284 46.5851 30.577C47.4202 31.0351 47.6787 32.0706 47.2235 33.0067C46.8502 33.7731 46.2098 34.3126 45.6035 34.88C45.2853 35.1779 44.9634 35.473 44.5792 35.8281C45.2744 35.8281 45.8891 35.8224 46.5038 35.8304C46.7184 35.833 46.6613 35.6905 46.6792 35.5728C46.6985 35.4468 46.5935 35.2446 46.7594 35.2094C46.9821 35.1615 47.2241 35.1915 47.4566 35.2088C47.5238 35.2137 47.5073 35.315 47.5079 35.3764C47.5091 35.7275 47.5027 36.0794 47.5111 36.4307C47.5154 36.5937 47.4638 36.654 47.2939 36.6525C46.057 36.6468 44.8206 36.6482 43.5834 36.6525C43.4354 36.6525 43.374 36.6058 43.3676 36.455C43.3529 36.1108 43.3734 35.8157 43.6763 35.5477C44.3703 34.9351 45.0274 34.2791 45.6869 33.628C46.0448 33.2735 46.3469 32.8769 46.4328 32.3562C46.5084 31.8961 46.3469 31.4989 45.986 31.2794C45.5856 31.0356 45.0318 31.0535 44.6553 31.3224C44.3077 31.5704 44.1635 31.9671 44.3135 32.4277C44.3948 32.6784 44.3461 32.7502 44.0937 32.7981C43.5035 32.9115 43.4899 32.9147 43.3792 32.3164Z" fill="#C23E00"/>
<path d="M52.095 31.2819C51.6967 30.602 51.103 30.236 50.3008 30.2752C49.5376 30.3127 48.9774 30.7114 48.6667 31.3832C48.0205 32.7816 48.0188 34.2115 48.652 35.6138C48.9791 36.3387 49.5748 36.7442 50.3975 36.7468C51.2337 36.7494 51.8002 36.3225 52.1729 35.6028C52.4784 35.0117 52.5693 34.3719 52.5981 33.7163C52.6053 32.8693 52.5355 32.0345 52.095 31.2819ZM51.3361 35.1871C51.1544 35.5979 50.8899 35.9143 50.3827 35.9016C49.8782 35.8881 49.6094 35.5676 49.462 35.1447C49.0951 34.0881 49.1213 33.0185 49.4256 31.9494C49.4461 31.879 49.4819 31.8118 49.5145 31.7452C49.6951 31.376 49.9685 31.1138 50.3963 31.11C50.8238 31.1063 51.1051 31.3613 51.2868 31.7305C51.5666 32.2999 51.6142 32.912 51.6058 33.5328C51.6153 34.1008 51.5698 34.6613 51.3361 35.1871Z" fill="#C23E00"/>
<path d="M43.9024 20.3574C36.3288 19.8821 30.135 25.7364 29.856 33.0514C29.582 40.2291 35.3036 46.4181 42.4693 46.6918C50.0383 46.9812 56.0789 41.0282 56.2364 33.8599C56.4418 26.8457 51.0257 20.8046 43.9024 20.3574ZM43.0295 45.7425C36.4454 45.7189 30.8183 40.4576 30.8163 33.5094C30.8146 26.4036 36.7162 21.1564 43.2946 21.2869C49.5375 21.4104 55.2626 26.4471 55.2836 33.4864C55.3041 40.412 49.6834 45.7373 43.0295 45.7425ZM43.9024 20.3574C36.3288 19.8821 30.135 25.7364 29.856 33.0514C29.582 40.2291 35.3036 46.4181 42.4693 46.6918C50.0383 46.9812 56.0789 41.0282 56.2364 33.8599C56.4418 26.8457 51.0257 20.8046 43.9024 20.3574ZM43.0295 45.7425C36.4454 45.7189 30.8183 40.4576 30.8163 33.5094C30.8146 26.4036 36.7162 21.1564 43.2946 21.2869C49.5375 21.4104 55.2626 26.4471 55.2836 33.4864C55.3041 40.412 49.6834 45.7373 43.0295 45.7425ZM43.9024 20.3574C36.3288 19.8821 30.135 25.7364 29.856 33.0514C29.582 40.2291 35.3036 46.4181 42.4693 46.6918C50.0383 46.9812 56.0789 41.0282 56.2364 33.8599C56.4418 26.8457 51.0257 20.8046 43.9024 20.3574ZM43.0295 45.7425C36.4454 45.7189 30.8183 40.4576 30.8163 33.5094C30.8146 26.4036 36.7162 21.1564 43.2946 21.2869C49.5375 21.4104 55.2626 26.4471 55.2836 33.4864C55.3041 40.412 49.6834 45.7373 43.0295 45.7425ZM43.9024 20.3574C36.3288 19.8821 30.135 25.7364 29.856 33.0514C29.582 40.2291 35.3036 46.4181 42.4693 46.6918C50.0383 46.9812 56.0789 41.0282 56.2364 33.8599C56.4418 26.8457 51.0257 20.8046 43.9024 20.3574ZM43.0295 45.7425C36.4454 45.7189 30.8183 40.4576 30.8163 33.5094C30.8146 26.4036 36.7162 21.1564 43.2946 21.2869C49.5375 21.4104 55.2626 26.4471 55.2836 33.4864C55.3041 40.412 49.6834 45.7373 43.0295 45.7425ZM43.9024 20.3574C36.3288 19.8821 30.135 25.7364 29.856 33.0514C29.582 40.2291 35.3036 46.4181 42.4693 46.6918C50.0383 46.9812 56.0789 41.0282 56.2364 33.8599C56.4418 26.8457 51.0257 20.8046 43.9024 20.3574ZM43.0295 45.7425C36.4454 45.7189 30.8183 40.4576 30.8163 33.5094C30.8146 26.4036 36.7162 21.1564 43.2946 21.2869C49.5375 21.4104 55.2626 26.4471 55.2836 33.4864C55.3041 40.412 49.6834 45.7373 43.0295 45.7425ZM43.9024 20.3574C36.3288 19.8821 30.135 25.7364 29.856 33.0514C29.582 40.2291 35.3036 46.4181 42.4693 46.6918C50.0383 46.9812 56.0789 41.0282 56.2364 33.8599C56.4418 26.8457 51.0257 20.8046 43.9024 20.3574ZM43.0295 45.7425C36.4454 45.7189 30.8183 40.4576 30.8163 33.5094C30.8146 26.4036 36.7162 21.1564 43.2946 21.2869C49.5375 21.4104 55.2626 26.4471 55.2836 33.4864C55.3041 40.412 49.6834 45.7373 43.0295 45.7425ZM59.5647 30.7073C58.9808 26.9909 57.2481 23.8223 54.4725 21.2793C50.4623 17.6059 45.7174 16.1715 40.3459 16.993C36.6008 17.5656 33.407 19.2884 30.8351 22.0694C27.2185 25.9808 25.7612 30.6248 26.4681 35.891C27.0079 39.9133 28.8891 43.2698 31.8871 46.003C32.1828 46.2479 32.4787 46.4937 32.7744 46.7386C35.5468 48.8671 38.676 50.0391 42.169 50.2356C42.1413 50.2584 42.1182 50.2835 42.0998 50.3109C42.1171 50.3123 42.1344 50.3129 42.1517 50.3135C42.1754 50.3149 42.1996 50.3161 42.2232 50.3166C42.6877 50.4115 43.1518 50.398 43.6159 50.3322C43.6609 50.3256 43.7057 50.3187 43.7504 50.3117H43.7582C47.1819 50.1915 50.256 49.0794 53.0189 47.0795C53.0357 47.0674 53.0527 47.0553 53.0694 47.0432C53.0726 47.04 53.0766 47.0368 53.0798 47.0342C53.3481 46.7899 53.6873 46.6246 53.8909 46.3088C54.2746 45.9401 54.6735 45.5865 55.0384 45.2008C58.909 41.1075 60.4367 36.2576 59.5647 30.7073ZM57.2801 33.7826C57.1419 41.4615 50.856 47.7225 43.0595 47.7329C35.1851 47.7436 28.649 41.2783 28.8218 33.1939C28.9872 25.4549 35.3625 19.2794 43.0572 19.2948C50.8656 19.2788 57.4255 25.707 57.2801 33.7826ZM43.9024 20.3574C36.3288 19.8821 30.135 25.7364 29.856 33.0514C29.582 40.2291 35.3036 46.4181 42.4693 46.6918C50.0383 46.9812 56.0789 41.0282 56.2364 33.8599C56.4418 26.8457 51.0257 20.8046 43.9024 20.3574ZM43.0295 45.7425C36.4454 45.7189 30.8183 40.4576 30.8163 33.5094C30.8146 26.4036 36.7162 21.1564 43.2946 21.2869C49.5375 21.4104 55.2626 26.4471 55.2836 33.4864C55.3041 40.412 49.6834 45.7373 43.0295 45.7425ZM43.9024 20.3574C36.3288 19.8821 30.135 25.7364 29.856 33.0514C29.582 40.2291 35.3036 46.4181 42.4693 46.6918C50.0383 46.9812 56.0789 41.0282 56.2364 33.8599C56.4418 26.8457 51.0257 20.8046 43.9024 20.3574ZM43.0295 45.7425C36.4454 45.7189 30.8183 40.4576 30.8163 33.5094C30.8146 26.4036 36.7162 21.1564 43.2946 21.2869C49.5375 21.4104 55.2626 26.4471 55.2836 33.4864C55.3041 40.412 49.6834 45.7373 43.0295 45.7425ZM43.9024 20.3574C36.3288 19.8821 30.135 25.7364 29.856 33.0514C29.582 40.2291 35.3036 46.4181 42.4693 46.6918C50.0383 46.9812 56.0789 41.0282 56.2364 33.8599C56.4418 26.8457 51.0257 20.8046 43.9024 20.3574ZM43.0295 45.7425C36.4454 45.7189 30.8183 40.4576 30.8163 33.5094C30.8146 26.4036 36.7162 21.1564 43.2946 21.2869C49.5375 21.4104 55.2626 26.4471 55.2836 33.4864C55.3041 40.412 49.6834 45.7373 43.0295 45.7425ZM43.9024 20.3574C36.3288 19.8821 30.135 25.7364 29.856 33.0514C29.582 40.2291 35.3036 46.4181 42.4693 46.6918C50.0383 46.9812 56.0789 41.0282 56.2364 33.8599C56.4418 26.8457 51.0257 20.8046 43.9024 20.3574ZM43.0295 45.7425C36.4454 45.7189 30.8183 40.4576 30.8163 33.5094C30.8146 26.4036 36.7162 21.1564 43.2946 21.2869C49.5375 21.4104 55.2626 26.4471 55.2836 33.4864C55.3041 40.412 49.6834 45.7373 43.0295 45.7425ZM43.9024 20.3574C36.3288 19.8821 30.135 25.7364 29.856 33.0514C29.582 40.2291 35.3036 46.4181 42.4693 46.6918C50.0383 46.9812 56.0789 41.0282 56.2364 33.8599C56.4418 26.8457 51.0257 20.8046 43.9024 20.3574ZM43.0295 45.7425C36.4454 45.7189 30.8183 40.4576 30.8163 33.5094C30.8146 26.4036 36.7162 21.1564 43.2946 21.2869C49.5375 21.4104 55.2626 26.4471 55.2836 33.4864C55.3041 40.412 49.6834 45.7373 43.0295 45.7425ZM43.9024 20.3574C36.3288 19.8821 30.135 25.7364 29.856 33.0514C29.582 40.2291 35.3036 46.4181 42.4693 46.6918C50.0383 46.9812 56.0789 41.0282 56.2364 33.8599C56.4418 26.8457 51.0257 20.8046 43.9024 20.3574ZM43.0295 45.7425C36.4454 45.7189 30.8183 40.4576 30.8163 33.5094C30.8146 26.4036 36.7162 21.1564 43.2946 21.2869C49.5375 21.4104 55.2626 26.4471 55.2836 33.4864C55.3041 40.412 49.6834 45.7373 43.0295 45.7425ZM43.9024 20.3574C36.3288 19.8821 30.135 25.7364 29.856 33.0514C29.582 40.2291 35.3036 46.4181 42.4693 46.6918C50.0383 46.9812 56.0789 41.0282 56.2364 33.8599C56.4418 26.8457 51.0257 20.8046 43.9024 20.3574ZM43.0295 45.7425C36.4454 45.7189 30.8183 40.4576 30.8163 33.5094C30.8146 26.4036 36.7162 21.1564 43.2946 21.2869C49.5375 21.4104 55.2626 26.4471 55.2836 33.4864C55.3041 40.412 49.6834 45.7373 43.0295 45.7425Z" fill="#C23E00"/>
<path d="M86.0706 24.6015C85.6636 22.3176 84.5513 20.4387 82.6431 19.0766C80.7358 17.7146 78.553 17.2015 76.2568 17.1606C73.5476 17.1132 70.8378 17.1427 68.1283 17.1401C66.6139 17.1388 65.0989 17.1452 63.5839 17.1344C63.3554 17.1324 63.3003 17.1983 63.3061 17.4184C63.3214 18.0364 63.3219 18.655 63.3061 19.273C63.2997 19.502 63.3733 19.5539 63.5922 19.5519C64.648 19.5404 65.7046 19.559 66.7598 19.5392C67.0532 19.5334 67.1048 19.6236 67.1042 19.8955C67.0959 24.4473 67.0985 28.9984 67.0985 33.5495C67.0985 38.1224 67.0959 42.6954 67.1042 47.2675C67.1048 47.5237 67.0581 47.61 66.7803 47.6048C65.7032 47.5863 64.6258 47.6004 63.5481 47.5941C63.3816 47.5932 63.3029 47.6169 63.3066 47.8139C63.3188 48.4742 63.3182 49.1356 63.3066 49.7965C63.3035 49.9898 63.3785 50.0206 63.5487 50.0206C67.2081 50.0166 70.8666 50.0154 74.5261 50.0224C74.7508 50.0229 74.7874 49.9419 74.784 49.746C74.7739 49.1281 74.7687 48.5094 74.786 47.8915C74.7923 47.6561 74.7355 47.5889 74.4909 47.5906C73.1039 47.6042 71.717 47.5921 70.3307 47.6022C70.1048 47.6042 70.0255 47.5664 70.0261 47.3137C70.0356 43.5513 70.035 39.7883 70.0272 36.0262C70.0266 35.7983 70.0918 35.7473 70.3116 35.7484C72.0289 35.7574 73.7461 35.7631 75.4636 35.7504C76.8516 35.74 78.2296 35.6281 79.5736 35.2482C81.8068 34.6168 83.6547 33.4396 84.8842 31.4264C86.1756 29.3131 86.501 27.0101 86.0706 24.6015ZM78.3577 32.8217C77.5855 33.0435 76.7954 33.1433 75.9912 33.1422C74.1023 33.139 72.214 33.137 70.3258 33.1471C70.0901 33.1485 70.0255 33.0954 70.0266 32.8528C70.0376 30.7098 70.033 28.5673 70.033 26.4241C70.033 24.3136 70.0376 22.2024 70.0266 20.0919C70.0255 19.8277 70.067 19.7317 70.3659 19.7343C72.3075 19.7509 74.25 19.7093 76.1908 19.7509C78.7122 19.8053 80.8451 20.708 82.2514 22.8908C84.3917 26.2143 83.2483 31.414 78.3577 32.8217Z" fill="#C23E00"/>
<path d="M62.6816 0C59.6672 0.00127949 56.6519 0.00191924 53.6369 0.00255899C53.2154 0.153539 53.079 0.358258 53.079 0.851501C53.079 3.64209 53.0784 6.43264 53.079 9.22321C53.0799 9.84635 53.3499 10.1221 53.9686 10.1234C54.9704 10.1259 55.9725 10.1246 56.9747 10.1246C58.7868 10.1246 60.5995 10.1265 62.4116 10.1234C62.9519 10.1221 63.2458 9.84378 63.2458 9.33646C63.2478 6.47103 63.2478 3.60626 63.2458 0.740827C63.2458 0.343543 63.0724 0.12475 62.6816 0ZM56.0905 8.37043C56.0911 8.54253 56.0527 8.61929 55.8624 8.61162C55.5225 8.5982 55.1804 8.595 54.8412 8.61291C54.63 8.62379 54.5992 8.53549 54.6012 8.35315C54.6101 7.64048 54.6049 6.92781 54.6049 6.21514C54.6049 5.48135 54.6101 4.74756 54.6012 4.01377C54.5992 3.8404 54.639 3.77002 54.8271 3.77769C55.1781 3.7924 55.53 3.7905 55.8805 3.77833C56.0565 3.77195 56.0911 3.83977 56.0905 3.99906C56.0853 5.4564 56.0853 6.9131 56.0905 8.37043ZM55.342 3.10532C54.8663 3.09701 54.4691 2.68757 54.4821 2.21864C54.4953 1.74843 54.909 1.36842 55.3887 1.38633C55.8592 1.40424 56.2186 1.79065 56.2062 2.26598C56.1941 2.73619 55.8061 3.11299 55.342 3.10532ZM61.4755 8.61225C61.1455 8.5969 60.8141 8.5969 60.4841 8.61225C60.2871 8.62122 60.2305 8.55917 60.2337 8.36213C60.2447 7.59508 60.2389 6.82737 60.2377 6.06032C60.2377 5.94323 60.2395 5.82488 60.2224 5.70972C60.1474 5.20817 59.9023 4.97083 59.4635 4.96636C58.9731 4.96122 58.6575 5.21841 58.5825 5.70972C58.5485 5.92982 58.5427 6.15499 58.541 6.37826C58.5358 7.02825 58.53 7.67824 58.5442 8.3282C58.5491 8.55534 58.4755 8.62442 58.254 8.61225C57.9352 8.59564 57.6145 8.60267 57.2943 8.61035C57.1296 8.61418 57.0433 8.58283 57.0445 8.38578C57.0508 6.91566 57.0502 5.44489 57.045 3.97474C57.0445 3.81609 57.1033 3.77515 57.2507 3.77899C57.5599 3.78793 57.8698 3.7969 58.1778 3.77706C58.4129 3.76108 58.5165 3.82503 58.4775 4.07198C58.4614 4.17242 58.4749 4.27797 58.4749 4.46862C58.9789 3.77899 59.5973 3.57297 60.3381 3.69516C61.0919 3.81929 61.496 4.2204 61.6503 4.97593C61.7585 5.50373 61.7129 6.0373 61.7193 6.56827C61.7265 7.16515 61.7135 7.76204 61.725 8.35829C61.7291 8.55214 61.6757 8.62122 61.4755 8.61225Z" fill="#0065C8"/>
<path d="M55.7408 54.8801C54.8022 54.6381 53.8987 54.4064 52.9964 54.171C51.8951 53.8832 50.7926 53.5993 49.6958 53.2967C49.4607 53.2312 49.3052 53.2863 49.1247 53.4314C47.5378 54.7067 45.9441 55.9728 44.3524 57.2406C44.303 57.2795 44.25 57.3141 44.1603 57.3782C43.9439 56.398 43.7345 55.446 43.5233 54.4941C43.3145 53.5532 43.1045 52.6128 42.8452 51.6787C42.4277 53.5647 42.0101 55.4512 41.5921 57.3404C41.4415 57.3277 41.3622 57.2149 41.2661 57.1382C39.7139 55.9056 38.1605 54.6738 36.6187 53.4283C36.4191 53.2664 36.248 53.2474 36.0164 53.3088C34.114 53.8142 32.2096 54.3107 30.3054 54.8088C30.2235 54.8308 30.139 54.8423 30.0556 54.8587C29.991 54.763 30.0424 54.6738 30.062 54.5824C30.6634 51.797 31.264 49.011 31.8631 46.2248C31.8787 46.1527 31.8793 46.0771 31.8871 46.003C32.1828 46.2479 32.4787 46.4936 32.7744 46.7385C32.7539 46.7579 32.738 46.7789 32.7251 46.8011C32.6746 46.8888 32.6752 46.995 32.6547 47.091C32.2136 49.1279 31.7769 51.1661 31.339 53.2038C31.2608 53.5653 31.2603 53.5673 31.6179 53.4744C33.1837 53.0668 34.7498 52.6627 36.3121 52.2441C36.5126 52.1905 36.6481 52.221 36.8051 52.3471C38.0581 53.3567 39.3176 54.358 40.5758 55.3618C40.697 55.4576 40.821 55.5499 40.9826 55.6733C41.3795 53.8537 41.7654 52.0829 42.1517 50.3134C42.1753 50.3146 42.1996 50.316 42.2232 50.3166C42.6877 50.4112 43.1518 50.398 43.6159 50.3319C43.5969 50.3775 43.6006 50.4395 43.62 50.5208C43.8184 51.3689 43.997 52.2219 44.1859 53.072C44.376 53.9261 44.5702 54.7788 44.7686 55.6598C44.8595 55.5952 44.9215 55.5562 44.9786 55.5107C46.2695 54.4826 47.5635 53.4585 48.846 52.4201C49.0644 52.2435 49.2519 52.1867 49.5343 52.2634C51.062 52.68 52.5963 53.0734 54.1286 53.4738C54.4808 53.5658 54.4857 53.5632 54.4064 53.1949C53.9653 51.1413 53.5223 49.0878 53.0798 47.0342C53.348 46.7896 53.6873 46.6246 53.8909 46.3087C54.2353 47.8875 54.5818 49.4665 54.9239 51.0458C55.187 52.262 55.4443 53.479 55.7042 54.6958C55.7151 54.7442 55.7235 54.7935 55.7408 54.8801Z" fill="#EA981C"/>
<path d="M6.27551 68.1311C5.37398 67.701 4.44808 67.3231 3.53694 66.9135C3.0452 66.6928 2.58481 66.4139 2.31332 65.929C1.97909 65.3327 1.99445 64.718 2.36263 64.144C2.76858 63.5108 3.39863 63.265 4.12217 63.3097C5.29904 63.3827 6.12695 64.1766 6.33441 65.378C6.35813 65.5139 6.34018 65.6552 6.55532 65.6489C6.98178 65.6365 7.40885 65.6405 7.83528 65.648C7.97807 65.6506 8.01586 65.5964 8.01522 65.4614C8.01139 64.3635 8.00945 63.2656 8.01649 62.1686C8.01779 61.9947 7.95182 61.9537 7.79239 61.9569C7.37683 61.9652 6.96064 61.9675 6.54444 61.9563C6.3677 61.9511 6.32611 62.02 6.33571 62.1796C6.34659 62.374 6.33825 62.5704 6.33825 62.7995C5.33172 61.9485 4.67925 61.7047 3.54205 61.7342C1.19344 61.795 -0.406682 63.9118 0.192001 66.1681C0.485259 67.2723 1.25042 67.9716 2.23136 68.451C3.03303 68.8424 3.86221 69.1765 4.67989 69.5353C5.10055 69.7202 5.5078 69.9273 5.85418 70.2351C6.39268 70.7131 6.55212 71.3137 6.39332 72.0008C6.24733 72.6322 5.85035 73.0462 5.23503 73.2501C3.61379 73.789 1.92402 72.6957 1.73769 70.9707C1.71144 70.7278 1.6346 70.6753 1.40922 70.6828C0.940515 70.7001 0.471173 70.688 0.00183105 70.688C0.00183105 72.0527 0.00183105 73.4171 0.00183105 74.7819C0.459646 74.7787 0.918104 74.762 1.37592 74.7767C1.61924 74.785 1.72104 74.7273 1.70311 74.4631C1.68775 74.2419 1.65957 74.0108 1.73129 73.7748C2.95618 74.9898 4.3322 75.1312 5.56861 74.9053C8.16825 74.4305 9.03586 71.7744 8.18683 69.9415C7.79048 69.0914 7.10022 68.5237 6.27551 68.1311Z" fill="#C23E00"/>
<path d="M74.3166 62.398C73.6603 62.0902 72.9602 61.9572 72.2408 61.9526C70.5669 61.9437 68.8926 61.9546 67.2187 61.9442C66.9767 61.9431 66.9011 62.012 66.9158 62.2509C66.9357 62.5584 66.9346 62.8693 66.9167 63.1771C66.9031 63.4177 66.9602 63.5348 67.2297 63.5048C67.4402 63.4817 67.6575 63.5169 67.868 63.4956C68.1152 63.4713 68.1698 63.5668 68.1683 63.8016C68.1574 65.3247 68.1626 66.8486 68.1626 68.3717C68.1626 69.885 68.1556 71.398 68.1698 72.911C68.1715 73.1833 68.0884 73.2614 67.8291 73.2378C67.5966 73.2161 67.3603 73.2398 67.1258 73.2309C66.9773 73.2257 66.9152 73.2735 66.9184 73.4296C66.9268 73.8026 66.9288 74.1756 66.9178 74.5485C66.9121 74.7355 66.9882 74.7796 67.1625 74.779C68.6019 74.7733 70.0413 74.7733 71.4807 74.7782C71.6414 74.779 71.7092 74.7424 71.704 74.567C71.6919 74.1949 71.6933 73.8213 71.7034 73.4489C71.7086 73.2845 71.6639 73.2236 71.4908 73.2294C71.1181 73.2415 70.7443 73.2199 70.3716 73.2378C70.1495 73.2487 70.0817 73.1827 70.0854 72.9562C70.099 72.1252 70.0849 71.2941 70.0938 70.4631C70.097 70.2023 70.1002 69.6707 70.1002 69.6707C70.1002 69.6707 70.6404 69.6614 70.8949 69.6591C71.7885 69.6502 72.6845 69.7038 73.5654 69.4774C75.1546 69.0678 76.2931 67.8173 76.4359 66.3003C76.6012 64.5352 75.827 63.1067 74.3166 62.398ZM73.073 67.8652C72.1223 68.0259 71.1591 67.9061 70.2026 67.9382C70.0035 67.9451 70.0534 67.8006 70.0528 67.695C70.0502 67.0451 70.0514 66.3958 70.0514 65.7464C70.0514 65.1072 70.0523 64.468 70.0502 63.8296C70.0502 63.6966 70.0335 63.5784 70.2366 63.5853C71.1516 63.6179 72.0698 63.5233 72.9822 63.6462C74.0777 63.7944 74.8044 64.5808 74.8312 65.6279C74.8609 66.7987 74.1848 67.6777 73.073 67.8652Z" fill="#C23E00"/>
<path d="M42.4904 73.2333C42.2244 73.2471 41.9556 73.2197 41.6911 73.2422C41.4669 73.2607 41.3455 73.1678 41.2295 72.9895C40.4772 71.8282 39.7229 70.6677 38.9507 69.5193C38.7785 69.2641 38.8036 69.1873 39.0946 69.078C41.8667 68.0358 41.8904 64.6657 40.4259 63.1865C39.5469 62.298 38.4436 61.9729 37.232 61.9634C35.5148 61.9487 33.7976 61.9596 32.0795 61.9596C31.4847 61.9596 31.4804 61.9596 31.4867 62.5617C31.4899 62.8576 31.363 63.2384 31.5366 63.4279C31.7135 63.6203 32.1 63.4669 32.3934 63.4899C32.4043 63.4911 32.415 63.4917 32.4254 63.4899C32.6628 63.449 32.7294 63.543 32.7277 63.7847C32.7162 65.3093 32.7219 66.8338 32.7219 68.3577C32.7219 69.8822 32.7153 71.4062 32.7283 72.9307C32.7309 73.1903 32.6515 73.2618 32.4061 73.2408C32.173 73.2209 31.9362 73.2454 31.7025 73.2339C31.5398 73.2255 31.4752 73.2708 31.481 73.4456C31.4937 73.818 31.4893 74.1916 31.483 74.5645C31.481 74.7059 31.5104 74.7757 31.6757 74.7748C33.1367 74.7693 34.5987 74.7699 36.0597 74.7737C36.1993 74.7742 36.2466 74.7252 36.244 74.5888C36.2391 74.2048 36.2334 73.8212 36.2466 73.4378C36.253 73.2538 36.1693 73.2313 36.0176 73.2344C35.644 73.2414 35.2708 73.2281 34.8975 73.2402C34.7106 73.2466 34.6356 73.203 34.6376 72.9959C34.648 71.9401 34.648 70.8852 34.6376 69.8297C34.635 69.6212 34.7112 69.5834 34.8969 69.5871C35.4193 69.5975 35.9426 69.6027 36.4644 69.5848C36.6949 69.577 36.8241 69.6506 36.9485 69.8476C37.9359 71.4143 38.9371 72.9722 39.9329 74.5331C40.0122 74.6571 40.0667 74.78 40.262 74.7768C41.0086 74.7642 41.756 74.7679 42.5025 74.7748C42.6586 74.7763 42.7041 74.7226 42.7004 74.572C42.692 74.1991 42.6906 73.8255 42.701 73.4534C42.7053 73.2913 42.6663 73.2235 42.4904 73.2333ZM37.6644 67.865C36.7134 68.0257 35.7505 67.906 34.7939 67.938C34.5946 67.9449 34.6445 67.8004 34.6439 67.6948C34.6414 67.0449 34.6428 66.3956 34.6428 65.7463C34.6428 65.107 34.6434 64.4681 34.6413 63.8294C34.6413 63.6965 34.6249 63.5782 34.8277 63.5851C35.7427 63.6177 36.6609 63.5231 37.5733 63.646C38.6688 63.7943 39.3958 64.5806 39.4226 65.628C39.452 66.7986 38.7759 67.6775 37.6644 67.865Z" fill="#C23E00"/>
<path d="M29.7862 73.2411C29.5817 73.2443 29.4917 73.1849 29.432 72.9841C29.2566 72.3936 29.0556 71.8115 28.8634 71.2259C27.8831 68.2383 26.9028 65.2501 25.9232 62.262C25.8707 62.1033 25.8489 61.951 25.6024 61.953C24.2059 61.9657 22.8087 61.9605 21.4116 61.9573C21.2618 61.9568 21.1772 61.9758 21.1843 62.1627C21.1997 62.5351 21.1971 62.9087 21.1856 63.2811C21.1798 63.455 21.2457 63.4966 21.4065 63.4928C21.7791 63.4833 22.1537 63.505 22.5257 63.485C22.7972 63.4709 22.8164 63.5497 22.7377 63.7902C21.7804 66.7075 20.8347 69.6287 19.8851 72.5485C19.6706 73.2079 19.67 73.2157 18.9509 73.2316C18.7627 73.2354 18.7172 73.2982 18.723 73.4728C18.7345 73.8241 18.7364 74.1766 18.7223 74.5271C18.7146 74.7299 18.7928 74.776 18.9823 74.7754C20.2193 74.7677 21.4564 74.7682 22.6928 74.7746C22.8709 74.776 22.9381 74.7299 22.931 74.5438C22.9182 74.1824 22.9169 73.8189 22.9317 73.4575C22.9394 73.2648 22.8612 73.2284 22.6909 73.233C22.3292 73.2437 21.9667 73.2362 21.5614 73.2362C21.8054 72.4588 22.0391 71.7313 22.2581 70.9995C22.3016 70.8524 22.3759 70.8244 22.5084 70.825C23.8415 70.8276 25.1747 70.8287 26.5077 70.8229C26.6384 70.8224 26.6992 70.8691 26.7357 70.9842C26.9528 71.6733 27.1692 72.3622 27.392 73.0499C27.4484 73.2238 27.3734 73.2431 27.2268 73.2388C26.9393 73.2305 26.6505 73.2452 26.3631 73.233C26.187 73.2258 26.1165 73.2752 26.1242 73.4632C26.1383 73.7932 26.1428 74.1247 26.1236 74.4541C26.1095 74.6967 26.171 74.7824 26.4354 74.7786C27.4586 74.7613 28.4824 74.7729 29.5064 74.7703C29.7926 74.7697 30.1716 74.8669 30.3407 74.723C30.5385 74.5545 30.3983 74.1636 30.4032 73.87C30.4142 73.2411 30.4073 73.2322 29.7862 73.2411ZM25.8931 69.2107C24.9544 69.2001 24.0157 69.205 23.0777 69.2076C22.9278 69.2076 22.7953 69.2237 22.867 68.9938C23.385 67.33 23.8966 65.6641 24.4114 63.9988C24.4236 63.9616 24.4569 63.9304 24.5023 63.8632C24.786 64.7652 25.0607 65.6352 25.3322 66.5067C25.5857 67.3178 25.8297 68.1316 26.0922 68.9396C26.1633 69.1591 26.1217 69.2133 25.8931 69.2107Z" fill="#C23E00"/>
<path d="M65.4522 61.9553C64.0653 61.9625 62.6783 61.9611 61.2914 61.9573C61.138 61.9567 61.0598 61.983 61.0667 62.1653C61.0814 62.5377 61.0814 62.9118 61.0667 63.2842C61.0598 63.4665 61.138 63.496 61.2914 63.4919C61.6116 63.4844 61.9324 63.5066 62.2514 63.4844C62.4952 63.4677 62.5503 63.5485 62.5491 63.7856C62.5396 66.1412 62.5454 68.4973 62.5428 70.8538C62.5413 71.8683 61.956 72.7094 61.0067 73.0686C60.3522 73.3161 59.6772 73.3417 58.9915 73.2425C57.7448 73.0619 56.878 72.2214 56.8485 70.9642C56.7914 68.5351 56.8203 66.1048 56.8102 63.6745C56.8093 63.5043 56.897 63.4864 57.0309 63.4882C57.3614 63.4928 57.6932 63.4772 58.0229 63.4939C58.2283 63.5043 58.2764 63.4273 58.2686 63.2375C58.2545 62.9072 58.2461 62.5752 58.2707 62.2463C58.2891 61.9925 58.1905 61.9515 57.9626 61.9536C56.7358 61.9642 55.5089 61.9585 54.2821 61.9585C53.6155 61.9585 53.6111 61.9585 53.6175 62.6239C53.6201 62.8983 53.5015 63.249 53.668 63.4267C53.8379 63.6085 54.1924 63.4683 54.4653 63.4896C54.4863 63.4914 54.5083 63.4928 54.5293 63.4896C54.7861 63.4455 54.8732 63.5317 54.8694 63.8092C54.8527 65.0242 54.8622 66.2398 54.8622 67.4554C54.8622 68.628 54.84 69.8012 54.8674 70.9732C54.9046 72.5623 55.5834 73.7793 57.058 74.4745C58.2681 75.0454 59.5517 75.0901 60.8452 74.898C63.124 74.5602 64.4532 73.0025 64.4532 70.713C64.4532 68.4105 64.4573 66.108 64.4475 63.8049C64.4463 63.558 64.5046 63.4614 64.7625 63.4856C64.995 63.5081 65.2318 63.4813 65.4663 63.4934C65.6328 63.5017 65.6884 63.4466 65.6832 63.2779C65.6717 62.9156 65.6711 62.553 65.6832 62.1907C65.6899 62.0104 65.6365 61.9541 65.4522 61.9553Z" fill="#C23E00"/>
<path d="M85.3765 69.2997C84.909 68.7113 84.2968 68.3063 83.6201 68.0011C82.8447 67.6512 82.0598 67.3218 81.2792 66.9834C80.8561 66.7996 80.4571 66.5784 80.1369 66.2392C79.5312 65.5971 79.5234 64.5569 80.1317 63.9171C80.683 63.3375 81.377 63.1922 82.1276 63.3701C83.1661 63.6156 83.7214 64.3385 83.9161 65.3513C83.9619 65.5933 84.0465 65.6634 84.2821 65.6513C84.6548 65.6322 85.0287 65.6397 85.4022 65.6487C85.5557 65.6527 85.6024 65.6014 85.6018 65.4494C85.5966 64.3515 85.5961 63.2536 85.6018 62.1557C85.6024 61.9985 85.5456 61.9544 85.397 61.9581C85.0878 61.9665 84.7786 61.9607 84.469 61.9607C83.9282 61.9607 83.9299 61.9607 83.9224 62.5148C83.921 62.5907 83.9677 62.683 83.8699 62.7534C83.1182 61.9933 82.1896 61.7074 81.1422 61.7348C78.814 61.7969 77.2388 63.8363 77.773 66.103C78.0176 67.1415 78.6987 67.8271 79.5952 68.332C80.441 68.8079 81.3606 69.1226 82.2395 69.525C82.7057 69.7382 83.1667 69.9537 83.535 70.3246C84.4243 71.2203 84.1194 72.7353 82.9503 73.2067C82.4741 73.3988 81.9759 73.4409 81.4751 73.3405C80.3181 73.1083 79.4602 72.1569 79.3249 70.9445C79.3018 70.7369 79.241 70.6792 79.0393 70.687C78.6346 70.7017 78.2288 70.6965 77.8235 70.6887C77.6761 70.6861 77.6178 70.7253 77.6187 70.884C77.6244 72.1096 77.6236 73.3353 77.6187 74.561C77.6178 74.7306 77.6801 74.7811 77.8434 74.7773C78.2588 74.7684 78.6756 74.7672 79.0913 74.7779C79.2635 74.7825 79.3148 74.7196 79.3076 74.5561C79.2969 74.3118 79.305 74.0666 79.305 73.7461C80.4078 74.8734 81.7056 75.1515 83.1554 74.9118C85.7536 74.4785 86.9983 71.3426 85.3765 69.2997Z" fill="#C23E00"/>
<path d="M52.2631 61.9536C50.738 61.9652 49.2129 61.9594 47.6875 61.9594C46.1624 61.9594 44.6373 61.9643 43.1119 61.9536C42.874 61.9516 42.8067 62.011 42.8099 62.2531C42.8246 63.2119 42.8226 64.1716 42.8111 65.1305C42.8085 65.3569 42.8477 65.4567 43.1036 65.4394C43.4647 65.4152 43.8291 65.4189 44.1911 65.4383C44.4216 65.4504 44.5098 65.3973 44.4971 65.1458C44.4741 64.7102 44.5003 64.272 44.4862 63.8356C44.4804 63.6449 44.524 63.578 44.7293 63.5837C45.2941 63.599 45.8601 63.6028 46.4249 63.5823C46.6779 63.5733 46.7388 63.6463 46.7373 63.8958C46.7266 65.8779 46.7315 67.8602 46.7315 69.8428C46.7315 70.8876 46.7258 71.9315 46.7367 72.9763C46.7388 73.1869 46.6805 73.2527 46.4705 73.2417C46.1298 73.2253 45.7877 73.2443 45.4465 73.2342C45.2815 73.229 45.2217 73.2804 45.2264 73.4497C45.2373 73.8227 45.2339 74.1957 45.2275 74.5686C45.2249 74.7172 45.2742 74.7746 45.43 74.7746C46.934 74.7703 48.4375 74.7703 49.9415 74.7752C50.1028 74.776 50.1394 74.7132 50.1368 74.5681C50.1296 74.1841 50.1296 73.8005 50.1374 73.4171C50.14 73.2763 50.0901 73.2322 49.9531 73.2354C49.6118 73.2426 49.2697 73.2233 48.929 73.2426C48.7026 73.2553 48.6455 73.1823 48.6469 72.959C48.6564 71.4781 48.6518 69.9965 48.6518 68.5147C48.6518 66.959 48.6559 65.4031 48.6469 63.8465C48.6455 63.6374 48.7017 63.578 48.9106 63.5829C49.4863 63.597 50.0624 63.5918 50.6382 63.5849C50.8009 63.5829 50.8929 63.6008 50.886 63.803C50.8712 64.2394 50.8935 64.6776 50.8764 65.1137C50.8672 65.3511 50.916 65.4582 51.1848 65.4388C51.546 65.4132 51.9103 65.4198 52.2723 65.4377C52.4892 65.4478 52.5648 65.3953 52.5616 65.1619C52.5481 64.1921 52.5475 63.222 52.5616 62.2522C52.566 62.0116 52.5034 61.9516 52.2631 61.9536Z" fill="#C23E00"/>
<path d="M19.1348 65.1435C19.1252 64.1844 19.1201 63.2249 19.1373 62.2658C19.1425 61.999 19.0477 61.9531 18.8095 61.9543C17.2946 61.9641 15.7803 61.9589 14.2653 61.9589C12.7292 61.9589 11.1931 61.9641 9.65703 61.9537C9.42141 61.9525 9.34713 62.0099 9.35097 62.2543C9.36571 63.2244 9.35931 64.1942 9.35481 65.164C9.35417 65.3327 9.36058 65.4461 9.58532 65.4366C9.99 65.4198 10.3966 65.4198 10.8013 65.4366C11.0145 65.4447 11.0484 65.3541 11.0446 65.1715C11.035 64.7244 11.0516 64.2761 11.0369 63.8287C11.0298 63.6259 11.0984 63.578 11.2917 63.5826C11.8462 63.5953 12.4014 63.6011 12.9552 63.5806C13.2152 63.5711 13.2952 63.6331 13.2933 63.9074C13.2799 65.7623 13.2863 67.6168 13.2863 69.4713C13.2863 70.6332 13.2805 71.7948 13.2914 72.9568C13.2933 73.1818 13.2267 73.2522 13.0033 73.24C12.6626 73.2222 12.3207 73.2415 11.9794 73.2325C11.8302 73.2285 11.7726 73.2689 11.7771 73.4275C11.7873 73.8106 11.7835 74.1946 11.779 74.5785C11.7777 74.704 11.8008 74.7729 11.9512 74.7729C13.4764 74.7686 15.0023 74.7692 16.5275 74.7729C16.6671 74.7735 16.7138 74.7276 16.7112 74.5895C16.7048 74.2055 16.6997 73.8216 16.7132 73.4385C16.7196 73.2579 16.644 73.2285 16.4884 73.2325C16.1472 73.2415 15.8052 73.2201 15.4646 73.24C15.2424 73.253 15.1989 73.1665 15.1989 72.9669C15.204 69.9184 15.2033 66.8702 15.1995 63.8218C15.1995 63.6504 15.2354 63.578 15.4268 63.5818C16.0242 63.5939 16.6216 63.5933 17.219 63.5818C17.4041 63.5786 17.4559 63.638 17.4514 63.8166C17.4406 64.2637 17.4566 64.7123 17.4444 65.1594C17.4386 65.361 17.4879 65.4455 17.7095 65.4351C18.0924 65.4172 18.4778 65.4152 18.8607 65.4357C19.0983 65.4504 19.1367 65.3541 19.1348 65.1435Z" fill="#C23E00"/>
<path d="M51.6005 1.68762C51.6011 1.49186 51.5276 1.45987 51.3585 1.46563C51.0279 1.4765 50.6965 1.48482 50.3665 1.46371C50.1259 1.44836 50.0599 1.52321 50.0651 1.76439C50.0804 2.56215 50.0708 3.3612 50.0708 4.20694C48.8896 3.1808 47.2485 3.50835 46.5882 4.85884C46.2201 5.61181 46.1726 6.3987 46.4319 7.18816C46.9052 8.62949 48.7344 9.22447 49.8672 8.31859C49.9702 8.23669 50.0645 8.14329 50.1885 8.03134C50.1885 8.16057 50.2001 8.24693 50.1862 8.3301C50.1412 8.59496 50.265 8.65317 50.5055 8.63719C50.7917 8.61798 51.0813 8.62182 51.3686 8.63653C51.555 8.6455 51.6005 8.57895 51.6 8.40048C51.5942 6.16265 51.5933 3.9248 51.6005 1.68762ZM48.9816 7.39288C48.2544 7.38905 47.8087 6.92777 47.8087 6.17927C47.8093 5.4295 48.2902 4.93496 49.0099 4.94393C49.7154 4.95287 50.1894 5.44805 50.1879 6.1748C50.1862 6.9329 49.7281 7.39609 48.9816 7.39288Z" fill="#0065C8"/>
<path d="M41.199 3.77138C40.5695 4.48919 39.9952 5.15707 39.4027 5.80833C39.2582 5.96764 39.253 6.06425 39.3811 6.23185C39.9113 6.92534 40.4273 7.6297 40.9466 8.33087C41.0068 8.4121 41.0888 8.48375 41.1081 8.63219C40.5144 8.63219 39.9433 8.62899 39.3721 8.63473C39.2204 8.63603 39.178 8.52341 39.1154 8.43001C38.642 7.72374 38.171 7.01617 37.6408 6.22227C37.6408 6.81786 37.6483 7.32007 37.6376 7.82225C37.6318 8.08391 37.7585 8.43064 37.5805 8.58356C37.4308 8.71215 37.0944 8.63026 36.8409 8.63153C36.1154 8.63473 36.1154 8.63283 36.1154 7.90288C36.1154 5.8576 36.1194 3.81298 36.1105 1.7677C36.1091 1.53356 36.161 1.44655 36.4082 1.46382C36.7264 1.48621 37.0486 1.48429 37.3668 1.46446C37.5952 1.44975 37.6483 1.52652 37.6466 1.74787C37.6356 2.98322 37.6414 4.21856 37.6414 5.45456C37.6414 5.51597 37.6414 5.57738 37.6414 5.71879C38.1248 5.16157 38.578 4.67534 38.9859 4.15331C39.2204 3.85328 39.4751 3.73749 39.8498 3.76498C40.2724 3.7957 40.6993 3.77138 41.199 3.77138Z" fill="#0065C8"/>
<path d="M45.8636 6.01816C45.8054 4.47189 44.8699 3.5628 43.4002 3.62551C42.1332 3.67989 41.1144 4.49491 40.9102 5.61702C40.6777 6.89332 41.2252 8.00586 42.3265 8.49653C43.504 9.02113 44.9215 8.7115 45.6323 7.76915C45.3929 7.59192 45.1425 7.42752 44.9178 7.23304C44.6919 7.03726 44.5367 7.004 44.3082 7.26183C43.9984 7.6124 43.5623 7.66167 43.1287 7.52603C42.724 7.4 42.484 7.10318 42.3859 6.65981H45.2469C45.8884 6.65981 45.8884 6.65981 45.8636 6.01816ZM44.0945 5.6311C43.8505 5.61128 43.6038 5.62663 43.3586 5.62663C43.0924 5.62663 42.8253 5.62599 42.559 5.62726C42.4583 5.6279 42.3712 5.63944 42.3989 5.48012C42.4656 5.09949 42.8567 4.76298 43.2914 4.73225C43.7948 4.69643 44.1634 4.92036 44.3019 5.33298C44.3691 5.53706 44.3607 5.65285 44.0945 5.6311Z" fill="#0065C8"/>
<path d="M32.1254 4.40274C32.6415 3.70541 33.2862 3.56851 34.0001 3.67853C34.8107 3.80392 35.2518 4.33045 35.3363 5.23057C35.4364 6.29381 35.3709 7.36028 35.3934 8.42545C35.3971 8.60395 35.3216 8.63912 35.1655 8.63594C34.8029 8.62824 34.4395 8.6225 34.0774 8.63785C33.8816 8.64616 33.8501 8.56172 33.8516 8.39346C33.8579 7.62578 33.8568 6.8587 33.8521 6.09102C33.8516 5.94324 33.8363 5.7929 33.81 5.64768C33.7304 5.20562 33.5146 5.0041 33.1197 4.98939C32.6625 4.97211 32.3847 5.16852 32.2578 5.59074C32.1854 5.82999 32.19 6.07504 32.1895 6.31942C32.188 7.01225 32.1843 7.70511 32.1926 8.39793C32.1944 8.57516 32.1465 8.64425 31.9601 8.63785C31.5975 8.62507 31.2346 8.6257 30.8723 8.63785C30.6961 8.64362 30.6603 8.5745 30.6609 8.41458C30.6655 6.93292 30.6655 5.45127 30.6609 3.96962C30.6603 3.81673 30.7071 3.76556 30.8599 3.77003C31.1692 3.77961 31.4813 3.79625 31.7873 3.76619C32.085 3.73741 32.1701 3.85126 32.1266 4.1219C32.1171 4.18201 32.1254 4.24663 32.1254 4.40274Z" fill="#0065C8"/>
<path d="M23.1738 5.03993C23.1738 3.94214 23.1802 2.8437 23.1687 1.74589C23.1661 1.52326 23.2224 1.45033 23.4497 1.46313C23.8006 1.48296 24.1547 1.48552 24.505 1.46249C24.7637 1.44585 24.7669 1.57636 24.7662 1.76892C24.7611 3.45337 24.772 5.13784 24.7553 6.82165C24.7521 7.12744 24.8494 7.18439 25.1273 7.17735C25.8739 7.1588 26.6211 7.18309 27.3671 7.16454C27.6162 7.15814 27.6745 7.23492 27.6591 7.46714C27.6386 7.77487 27.6457 8.08514 27.6572 8.39414C27.6636 8.56623 27.6232 8.63659 27.4311 8.63595C26.0871 8.62828 24.7425 8.62638 23.3985 8.63725C23.1699 8.63916 23.1699 8.53167 23.1706 8.36535C23.1757 7.25731 23.1738 6.14864 23.1738 5.03993Z" fill="#0065C8"/>
<path d="M29.8411 6.1991C29.8411 6.92328 29.8336 7.64686 29.8462 8.37104C29.8503 8.58407 29.7848 8.64678 29.5768 8.63718C29.2471 8.62117 28.9159 8.62374 28.5862 8.63654C28.3967 8.64358 28.3249 8.58984 28.3262 8.38896C28.3333 6.93032 28.3339 5.47172 28.3256 4.01372C28.3243 3.80902 28.3954 3.76102 28.5836 3.7687C28.9024 3.78214 29.224 3.78661 29.5422 3.76743C29.7733 3.75335 29.8546 3.81029 29.8483 4.06042C29.8289 4.77246 29.8411 5.48579 29.8411 6.1991Z" fill="#0065C8"/>
<path d="M28.2207 2.23079C28.2226 1.73435 28.5895 1.36458 29.0825 1.36202C29.5832 1.35882 29.9712 1.74778 29.968 2.24935C29.9649 2.7266 29.5711 3.12324 29.0954 3.12901C28.6068 3.13475 28.2188 2.73619 28.2207 2.23079Z" fill="#0165C8"/>
<path d="M37.678 35.3761C37.6785 35.728 37.6733 36.0794 37.6759 36.4305C37.6771 36.588 37.6214 36.6537 37.4512 36.6531C36.2149 36.6468 34.9782 36.648 33.7413 36.6517C33.5959 36.6526 33.5466 36.6096 33.5287 36.4561C33.4814 36.0448 33.6049 35.7402 33.9251 35.4569C34.5704 34.886 35.1839 34.2777 35.7998 33.6739C36.1682 33.313 36.4817 32.9112 36.5882 32.3865C36.6776 31.9426 36.5175 31.5197 36.1705 31.2938C35.7767 31.0374 35.1871 31.0504 34.8124 31.3232C34.4527 31.5857 34.3157 31.9881 34.4847 32.4604C34.5782 32.7194 34.4847 32.75 34.2689 32.7915C33.6453 32.9132 33.6291 32.9106 33.5299 32.2772C33.3608 31.1998 34.153 30.335 35.3645 30.2729C35.6538 30.2582 35.9408 30.2825 36.2198 30.3534C37.3866 30.6497 37.9217 31.8269 37.4045 32.9528C37.0855 33.6477 36.5368 34.1568 35.9913 34.6659C35.5956 35.0357 35.196 35.4018 34.7345 35.8279C35.4245 35.8279 36.0297 35.8215 36.6349 35.8316C36.8238 35.8348 36.8276 35.739 36.8397 35.5956C36.8512 35.4612 36.7384 35.2475 36.9262 35.2059C37.1483 35.1566 37.3915 35.1912 37.624 35.21C37.6912 35.2149 37.678 35.3147 37.678 35.3761Z" fill="#FEFEFE"/>
<path d="M42.3732 31.5083C42.0196 30.7765 41.4709 30.2956 40.6188 30.2757C39.7422 30.2558 39.1549 30.707 38.7747 31.4656C38.5269 31.9589 38.4205 32.4879 38.3835 33.0343C38.3232 33.9268 38.3879 34.8043 38.8015 35.6163C39.1684 36.3366 39.748 36.7563 40.5848 36.7473C41.4075 36.7384 41.9613 36.3118 42.3282 35.6042C42.6657 34.9528 42.7413 34.2473 42.7624 33.5146C42.7445 32.8347 42.6804 32.1455 42.3732 31.5083ZM41.4799 35.2171C41.2941 35.6163 41.0293 35.9111 40.5392 35.9027C40.0624 35.8947 39.7857 35.5996 39.643 35.2049C39.2388 34.088 39.2408 32.9544 39.6357 31.834C39.7826 31.4189 40.0803 31.1143 40.5533 31.1111C41.0247 31.1085 41.3071 31.4094 41.4877 31.8161C41.7303 32.3639 41.7649 32.946 41.7643 33.5339C41.7611 34.1102 41.7291 34.6828 41.4799 35.2171Z" fill="#FEFEFE"/>
<path d="M47.5111 36.4307C47.5154 36.5937 47.4638 36.654 47.2939 36.6525C46.057 36.6468 44.8206 36.6482 43.5834 36.6525C43.4354 36.6525 43.374 36.6058 43.3676 36.455C43.3529 36.1108 43.3734 35.8157 43.6763 35.5477C44.3703 34.9351 45.0274 34.2791 45.6869 33.628C46.0448 33.2735 46.3469 32.8769 46.4328 32.3562C46.5084 31.8961 46.3469 31.4989 45.986 31.2794C45.5856 31.0356 45.0318 31.0535 44.6553 31.3224C44.3077 31.5704 44.1635 31.9671 44.3135 32.4277C44.3948 32.6784 44.3461 32.7502 44.0937 32.7981C43.5035 32.9115 43.4899 32.9147 43.3792 32.3164C43.2505 31.6229 43.5142 30.9667 44.1182 30.6165C44.9242 30.1489 45.7676 30.1284 46.5851 30.577C47.4202 31.0351 47.6787 32.0706 47.2235 33.0067C46.8502 33.7731 46.2098 34.3126 45.6035 34.88C45.2853 35.1779 44.9634 35.473 44.5792 35.8281C45.2744 35.8281 45.8891 35.8224 46.5038 35.8304C46.7184 35.833 46.6613 35.6905 46.6792 35.5728C46.6985 35.4468 46.5935 35.2446 46.7594 35.2094C46.9821 35.1615 47.2241 35.1915 47.4566 35.2088C47.5238 35.2137 47.5073 35.315 47.5079 35.3764C47.5091 35.7275 47.5033 36.0794 47.5111 36.4307Z" fill="#FEFEFE"/>
<path d="M52.095 31.2819C51.6967 30.602 51.103 30.236 50.3008 30.2752C49.5376 30.3127 48.9774 30.7114 48.6667 31.3832C48.0205 32.7816 48.0188 34.2115 48.652 35.6138C48.9791 36.3387 49.5748 36.7442 50.3975 36.7468C51.2337 36.7494 51.8002 36.3225 52.1729 35.6028C52.4784 35.0117 52.5693 34.3719 52.5981 33.7163C52.6053 32.8693 52.5355 32.0345 52.095 31.2819ZM51.3361 35.1871C51.1544 35.5979 50.8899 35.9143 50.3827 35.9016C49.8782 35.8881 49.6094 35.5676 49.462 35.1447C49.0951 34.0881 49.1213 33.0185 49.4256 31.9494C49.4461 31.879 49.4819 31.8118 49.5145 31.7452C49.6951 31.376 49.9685 31.1138 50.3963 31.11C50.8238 31.1063 51.1051 31.3613 51.2868 31.7305C51.5666 32.2999 51.6142 32.912 51.6058 33.5328C51.6153 34.1008 51.5698 34.6613 51.3361 35.1871Z" fill="#FEFEFE"/>
<path d="M43.9021 20.3574C36.3288 19.8821 30.135 25.7364 29.856 33.0514C29.5817 40.2292 35.3036 46.4181 42.4693 46.6919C50.0382 46.9812 56.0789 41.0282 56.2364 33.8599C56.4418 26.8457 51.0257 20.8046 43.9021 20.3574ZM43.0295 45.7425C36.4454 45.7189 30.8183 40.4576 30.8163 33.5092C30.8143 26.4036 36.7162 21.1565 43.2946 21.287C49.5375 21.4104 55.2626 26.4471 55.2836 33.4864C55.3041 40.412 49.6834 45.7373 43.0295 45.7425Z" fill="#FEFEFE"/>
<path d="M37.678 35.3761C37.6785 35.728 37.6733 36.0794 37.6759 36.4305C37.6771 36.588 37.6214 36.6537 37.4512 36.6531C36.2149 36.6468 34.9782 36.648 33.7413 36.6517C33.5959 36.6526 33.5466 36.6096 33.5287 36.4561C33.4814 36.0448 33.6049 35.7402 33.9251 35.4569C34.5704 34.886 35.1839 34.2777 35.7998 33.6739C36.1682 33.313 36.4817 32.9112 36.5882 32.3865C36.6776 31.9426 36.5175 31.5197 36.1705 31.2938C35.7767 31.0374 35.1871 31.0504 34.8124 31.3232C34.4527 31.5857 34.3157 31.9881 34.4847 32.4604C34.5782 32.7194 34.4847 32.75 34.2689 32.7915C33.6453 32.9132 33.6291 32.9106 33.5299 32.2772C33.3608 31.1998 34.153 30.335 35.3645 30.2729C35.6538 30.2582 35.9408 30.2825 36.2198 30.3534C37.3866 30.6497 37.9217 31.8269 37.4045 32.9528C37.0855 33.6477 36.5368 34.1568 35.9913 34.6659C35.5956 35.0357 35.196 35.4018 34.7345 35.8279C35.4245 35.8279 36.0297 35.8215 36.6349 35.8316C36.8238 35.8348 36.8276 35.739 36.8397 35.5956C36.8512 35.4612 36.7384 35.2475 36.9262 35.2059C37.1483 35.1566 37.3915 35.1912 37.624 35.21C37.6912 35.2149 37.678 35.3147 37.678 35.3761Z" fill="#EA981C"/>
<path d="M42.3732 31.5083C42.0196 30.7765 41.4709 30.2956 40.6188 30.2757C39.7422 30.2558 39.1549 30.707 38.7747 31.4656C38.5269 31.9589 38.4205 32.4879 38.3835 33.0343C38.3232 33.9268 38.3879 34.8043 38.8015 35.6163C39.1684 36.3366 39.748 36.7563 40.5848 36.7473C41.4075 36.7384 41.9613 36.3118 42.3282 35.6042C42.6657 34.9528 42.7413 34.2473 42.7624 33.5146C42.7445 32.8347 42.6804 32.1455 42.3732 31.5083ZM41.4799 35.2171C41.2941 35.6163 41.0293 35.9111 40.5392 35.9027C40.0624 35.8947 39.7857 35.5996 39.643 35.2049C39.2388 34.088 39.2408 32.9544 39.6357 31.834C39.7826 31.4189 40.0803 31.1143 40.5533 31.1111C41.0247 31.1085 41.3071 31.4094 41.4877 31.8161C41.7303 32.3639 41.7649 32.946 41.7643 33.5339C41.7611 34.1102 41.7291 34.6828 41.4799 35.2171Z" fill="#EA981C"/>
<path d="M47.5111 36.4307C47.5154 36.5937 47.4638 36.654 47.2939 36.6525C46.057 36.6468 44.8206 36.6482 43.5834 36.6525C43.4354 36.6525 43.374 36.6058 43.3676 36.455C43.3529 36.1108 43.3734 35.8157 43.6763 35.5477C44.3703 34.9351 45.0274 34.2791 45.6869 33.628C46.0448 33.2735 46.3469 32.8769 46.4328 32.3562C46.5084 31.8961 46.3469 31.4989 45.986 31.2794C45.5856 31.0356 45.0318 31.0535 44.6553 31.3224C44.3077 31.5704 44.1635 31.9671 44.3135 32.4277C44.3948 32.6784 44.3461 32.7502 44.0937 32.7981C43.5035 32.9115 43.4899 32.9147 43.3792 32.3164C43.2505 31.6229 43.5142 30.9667 44.1182 30.6165C44.9242 30.1489 45.7676 30.1284 46.5851 30.577C47.4202 31.0351 47.6787 32.0706 47.2235 33.0067C46.8502 33.7731 46.2098 34.3126 45.6035 34.88C45.2853 35.1779 44.9634 35.473 44.5792 35.8281C45.2744 35.8281 45.8891 35.8224 46.5038 35.8304C46.7184 35.833 46.6613 35.6905 46.6792 35.5728C46.6985 35.4468 46.5935 35.2446 46.7594 35.2094C46.9821 35.1615 47.2241 35.1915 47.4566 35.2088C47.5238 35.2137 47.5073 35.315 47.5079 35.3764C47.5091 35.7275 47.5033 36.0794 47.5111 36.4307Z" fill="#EA981C"/>
<path d="M52.095 31.2819C51.6967 30.602 51.103 30.236 50.3008 30.2752C49.5376 30.3127 48.9774 30.7114 48.6667 31.3832C48.0205 32.7816 48.0188 34.2115 48.652 35.6138C48.9791 36.3387 49.5748 36.7442 50.3975 36.7468C51.2337 36.7494 51.8002 36.3225 52.1729 35.6028C52.4784 35.0117 52.5693 34.3719 52.5981 33.7163C52.6053 32.8693 52.5355 32.0345 52.095 31.2819ZM51.3361 35.1871C51.1544 35.5979 50.8899 35.9143 50.3827 35.9016C49.8782 35.8881 49.6094 35.5676 49.462 35.1447C49.0951 34.0881 49.1213 33.0185 49.4256 31.9494C49.4461 31.879 49.4819 31.8118 49.5145 31.7452C49.6951 31.376 49.9685 31.1138 50.3963 31.11C50.8238 31.1063 51.1051 31.3613 51.2868 31.7305C51.5666 32.2999 51.6142 32.912 51.6058 33.5328C51.6153 34.1008 51.5698 34.6613 51.3361 35.1871Z" fill="#EA981C"/>
<path d="M43.9021 20.3574C36.3288 19.8821 30.135 25.7364 29.856 33.0514C29.5817 40.2292 35.3036 46.4181 42.4693 46.6919C50.0382 46.9812 56.0789 41.0282 56.2364 33.8599C56.4418 26.8457 51.0257 20.8046 43.9021 20.3574ZM43.0295 45.7425C36.4454 45.7189 30.8183 40.4576 30.8163 33.5092C30.8143 26.4036 36.7162 21.1565 43.2946 21.287C49.5375 21.4104 55.2626 26.4471 55.2836 33.4864C55.3041 40.412 49.6834 45.7373 43.0295 45.7425Z" fill="#EA981C"/>
<path d="M37.678 35.3761C37.6785 35.728 37.6733 36.0794 37.6759 36.4305C37.6771 36.588 37.6214 36.6537 37.4512 36.6531C36.2149 36.6468 34.9782 36.648 33.7413 36.6517C33.5959 36.6526 33.5466 36.6096 33.5287 36.4561C33.4814 36.0448 33.6049 35.7402 33.9251 35.4569C34.5704 34.886 35.1839 34.2777 35.7998 33.6739C36.1682 33.313 36.4817 32.9112 36.5882 32.3865C36.6776 31.9426 36.5175 31.5197 36.1705 31.2938C35.7767 31.0374 35.1871 31.0504 34.8124 31.3232C34.4527 31.5857 34.3157 31.9881 34.4847 32.4604C34.5782 32.7194 34.4847 32.75 34.2689 32.7915C33.6453 32.9132 33.6291 32.9106 33.5299 32.2772C33.3608 31.1998 34.153 30.335 35.3645 30.2729C35.6538 30.2582 35.9408 30.2825 36.2198 30.3534C37.3866 30.6497 37.9217 31.8269 37.4045 32.9528C37.0855 33.6477 36.5368 34.1568 35.9913 34.6659C35.5956 35.0357 35.196 35.4018 34.7345 35.8279C35.4245 35.8279 36.0297 35.8215 36.6349 35.8316C36.8238 35.8348 36.8276 35.739 36.8397 35.5956C36.8512 35.4612 36.7384 35.2475 36.9262 35.2059C37.1483 35.1566 37.3915 35.1912 37.624 35.21C37.6912 35.2149 37.678 35.3147 37.678 35.3761Z" fill="#FEFEFE"/>
<path d="M42.3732 31.5083C42.0196 30.7765 41.4709 30.2956 40.6188 30.2757C39.7422 30.2558 39.1549 30.707 38.7747 31.4656C38.5269 31.9589 38.4205 32.4879 38.3835 33.0343C38.3232 33.9268 38.3879 34.8043 38.8015 35.6163C39.1684 36.3366 39.748 36.7563 40.5848 36.7473C41.4075 36.7384 41.9613 36.3118 42.3282 35.6042C42.6657 34.9528 42.7413 34.2473 42.7624 33.5146C42.7445 32.8347 42.6804 32.1455 42.3732 31.5083ZM41.4799 35.2171C41.2941 35.6163 41.0293 35.9111 40.5392 35.9027C40.0624 35.8947 39.7857 35.5996 39.643 35.2049C39.2388 34.088 39.2408 32.9544 39.6357 31.834C39.7826 31.4189 40.0803 31.1143 40.5533 31.1111C41.0247 31.1085 41.3071 31.4094 41.4877 31.8161C41.7303 32.3639 41.7649 32.946 41.7643 33.5339C41.7611 34.1102 41.7291 34.6828 41.4799 35.2171Z" fill="#FEFEFE"/>
<path d="M47.5111 36.4307C47.5154 36.5937 47.4638 36.654 47.2939 36.6525C46.057 36.6468 44.8206 36.6482 43.5834 36.6525C43.4354 36.6525 43.374 36.6058 43.3676 36.455C43.3529 36.1108 43.3734 35.8157 43.6763 35.5477C44.3703 34.9351 45.0274 34.2791 45.6869 33.628C46.0448 33.2735 46.3469 32.8769 46.4328 32.3562C46.5084 31.8961 46.3469 31.4989 45.986 31.2794C45.5856 31.0356 45.0318 31.0535 44.6553 31.3224C44.3077 31.5704 44.1635 31.9671 44.3135 32.4277C44.3948 32.6784 44.3461 32.7502 44.0937 32.7981C43.5035 32.9115 43.4899 32.9147 43.3792 32.3164C43.2505 31.6229 43.5142 30.9667 44.1182 30.6165C44.9242 30.1489 45.7676 30.1284 46.5851 30.577C47.4202 31.0351 47.6787 32.0706 47.2235 33.0067C46.8502 33.7731 46.2098 34.3126 45.6035 34.88C45.2853 35.1779 44.9634 35.473 44.5792 35.8281C45.2744 35.8281 45.8891 35.8224 46.5038 35.8304C46.7184 35.833 46.6613 35.6905 46.6792 35.5728C46.6985 35.4468 46.5935 35.2446 46.7594 35.2094C46.9821 35.1615 47.2241 35.1915 47.4566 35.2088C47.5238 35.2137 47.5073 35.315 47.5079 35.3764C47.5091 35.7275 47.5033 36.0794 47.5111 36.4307Z" fill="#FEFEFE"/>
<path d="M52.095 31.2819C51.6967 30.602 51.103 30.236 50.3008 30.2752C49.5376 30.3127 48.9774 30.7114 48.6667 31.3832C48.0205 32.7816 48.0188 34.2115 48.652 35.6138C48.9791 36.3387 49.5748 36.7442 50.3975 36.7468C51.2337 36.7494 51.8002 36.3225 52.1729 35.6028C52.4784 35.0117 52.5693 34.3719 52.5981 33.7163C52.6053 32.8693 52.5355 32.0345 52.095 31.2819ZM51.3361 35.1871C51.1544 35.5979 50.8899 35.9143 50.3827 35.9016C49.8782 35.8881 49.6094 35.5676 49.462 35.1447C49.0951 34.0881 49.1213 33.0185 49.4256 31.9494C49.4461 31.879 49.4819 31.8118 49.5145 31.7452C49.6951 31.376 49.9685 31.1138 50.3963 31.11C50.8238 31.1063 51.1051 31.3613 51.2868 31.7305C51.5666 32.2999 51.6142 32.912 51.6058 33.5328C51.6153 34.1008 51.5698 34.6613 51.3361 35.1871Z" fill="#FEFEFE"/>
<path d="M52.095 31.2819C51.6967 30.602 51.103 30.236 50.3008 30.2752C49.5376 30.3127 48.9774 30.7114 48.6667 31.3832C48.0205 32.7816 48.0188 34.2115 48.652 35.6138C48.9791 36.3387 49.5748 36.7442 50.3975 36.7468C51.2337 36.7494 51.8002 36.3225 52.1729 35.6028C52.4784 35.0117 52.5693 34.3719 52.5981 33.7163C52.6053 32.8693 52.5355 32.0345 52.095 31.2819ZM51.3361 35.1871C51.1544 35.5979 50.8899 35.9143 50.3827 35.9016C49.8782 35.8881 49.6094 35.5676 49.462 35.1447C49.0951 34.0881 49.1213 33.0185 49.4256 31.9494C49.4461 31.879 49.4819 31.8118 49.5145 31.7452C49.6951 31.376 49.9685 31.1138 50.3963 31.11C50.8238 31.1063 51.1051 31.3613 51.2868 31.7305C51.5666 32.2999 51.6142 32.912 51.6058 33.5328C51.6153 34.1008 51.5698 34.6613 51.3361 35.1871Z" fill="#EA981C"/>
<path d="M42.3732 31.5083C42.0196 30.7765 41.4709 30.2956 40.6188 30.2757C39.7422 30.2558 39.1549 30.707 38.7747 31.4656C38.5269 31.9589 38.4205 32.4879 38.3835 33.0343C38.3232 33.9268 38.3879 34.8043 38.8015 35.6163C39.1684 36.3366 39.748 36.7563 40.5848 36.7473C41.4075 36.7384 41.9613 36.3118 42.3282 35.6042C42.6657 34.9528 42.7413 34.2473 42.7624 33.5146C42.7445 32.8347 42.6804 32.1455 42.3732 31.5083ZM41.4799 35.2171C41.2941 35.6163 41.0293 35.9111 40.5392 35.9027C40.0624 35.8947 39.7857 35.5996 39.643 35.2049C39.2388 34.088 39.2408 32.9544 39.6357 31.834C39.7826 31.4189 40.0803 31.1143 40.5533 31.1111C41.0247 31.1085 41.3071 31.4094 41.4877 31.8161C41.7303 32.3639 41.7649 32.946 41.7643 33.5339C41.7611 34.1102 41.7291 34.6828 41.4799 35.2171Z" fill="#EA981C"/>
<path d="M37.678 35.3761C37.6785 35.728 37.6733 36.0794 37.6759 36.4305C37.6771 36.588 37.6214 36.6537 37.4512 36.6531C36.2149 36.6468 34.9782 36.648 33.7413 36.6517C33.5959 36.6526 33.5466 36.6096 33.5287 36.4561C33.4814 36.0448 33.6049 35.7402 33.9251 35.4569C34.5704 34.886 35.1839 34.2777 35.7998 33.6739C36.1682 33.313 36.4817 32.9112 36.5882 32.3865C36.6776 31.9426 36.5175 31.5197 36.1705 31.2938C35.7767 31.0374 35.1871 31.0504 34.8124 31.3232C34.4527 31.5857 34.3157 31.9881 34.4847 32.4604C34.5782 32.7194 34.4847 32.75 34.2689 32.7915C33.6453 32.9132 33.6291 32.9106 33.5299 32.2772C33.3608 31.1998 34.153 30.335 35.3645 30.2729C35.6538 30.2582 35.9408 30.2825 36.2198 30.3534C37.3866 30.6497 37.9217 31.8269 37.4045 32.9528C37.0855 33.6477 36.5368 34.1568 35.9913 34.6659C35.5956 35.0357 35.196 35.4018 34.7345 35.8279C35.4245 35.8279 36.0297 35.8215 36.6349 35.8316C36.8238 35.8348 36.8276 35.739 36.8397 35.5956C36.8512 35.4612 36.7384 35.2475 36.9262 35.2059C37.1483 35.1566 37.3915 35.1912 37.624 35.21C37.6912 35.2149 37.678 35.3147 37.678 35.3761Z" fill="#EA981C"/>
<path d="M47.5111 36.4307C47.5154 36.5937 47.4638 36.654 47.2939 36.6525C46.057 36.6468 44.8206 36.6482 43.5834 36.6525C43.4354 36.6525 43.374 36.6058 43.3676 36.455C43.3529 36.1108 43.3734 35.8157 43.6763 35.5477C44.3703 34.9351 45.0274 34.2791 45.6869 33.628C46.0448 33.2735 46.3469 32.8769 46.4328 32.3562C46.5084 31.8961 46.3469 31.4989 45.986 31.2794C45.5856 31.0356 45.0318 31.0535 44.6553 31.3224C44.3077 31.5704 44.1635 31.9671 44.3135 32.4277C44.3948 32.6784 44.3461 32.7502 44.0937 32.7981C43.5035 32.9115 43.4899 32.9147 43.3792 32.3164C43.2505 31.6229 43.5142 30.9667 44.1182 30.6165C44.9242 30.1489 45.7676 30.1284 46.5851 30.577C47.4202 31.0351 47.6787 32.0706 47.2235 33.0067C46.8502 33.7731 46.2098 34.3126 45.6035 34.88C45.2853 35.1779 44.9634 35.473 44.5792 35.8281C45.2744 35.8281 45.8891 35.8224 46.5038 35.8304C46.7184 35.833 46.6613 35.6905 46.6792 35.5728C46.6985 35.4468 46.5935 35.2446 46.7594 35.2094C46.9821 35.1615 47.2241 35.1915 47.4566 35.2088C47.5238 35.2137 47.5073 35.315 47.5079 35.3764C47.5091 35.7275 47.5033 36.0794 47.5111 36.4307Z" fill="#EA981C"/>
</g>
<defs>
<clipPath id="clip0">
<rect width="86.25" height="75" fill="white"/>
</clipPath>
</defs>
</svg>
